<svg width="33" height="33" viewBox="0 0 33 33" fill="none" xmlns="http://www.w3.org/2000/svg">
<circle cx="16.5" cy="16.5" r="16" fill="#404444"/>
<path transform="translate(-1 0.0)" d="M15.6376 10.2677L15.4425 10.6518H12.8614C12.3842 10.6518 12 11.036 12 11.5132C12 11.9904 12.3842 12.3746 12.8614 12.3746H23.1919C23.6691 12.3746 24.0533 11.9904 24.0533 11.5132C24.0533 11.036 23.6691 10.6518 23.1919 10.6518H20.6078L20.4127 10.2677C20.2716 9.97355 19.9715 9.79047 19.6473 9.79047H16.4059C16.0818 9.79047 15.7817 9.97355 15.6376 10.2677ZM23.1919 13.236H12.8614L13.4316 22.357C13.4736 23.0383 14.0409 23.5665 14.7192 23.5665H21.3341C22.0154 23.5665 22.5796 23.0353 22.6216 22.357L23.1919 13.236Z" fill="white"/>
</svg>
