<svg width="25" height="25" viewBox="0 0 24 22" fill="none" xmlns="http://www.w3.org/2000/svg">
<path fill-rule="evenodd" clip-rule="evenodd" d="M0.966488 3.94543C0.376068 4.43454 0 5.17331 0 6.00002V16.6667C0 18.1396 1.19375 19.3334 2.66667 19.3334H14.6667C14.7389 19.3334 14.8104 19.3305 14.8812 19.3249L13.0794 17.3334H2.66667C2.29908 17.3334 2 17.0343 2 16.6667V6.00002C2 5.76191 2.1255 5.55254 2.31382 5.43459L0.966488 3.94543ZM15.3333 15.3531V6.00002C15.3333 5.63243 15.0343 5.33335 14.6667 5.33335H6.26788L4.45836 3.33335H14.6667C16.1396 3.33335 17.3333 4.5271 17.3333 6.00002V6.79168L21.6383 4.81718C22.155 4.57956 22.7529 4.6206 23.2333 4.92918C23.7125 5.24168 24 5.76252 24 6.33335V16.2959C24 16.9042 23.7125 17.4292 23.2325 17.7356C22.9588 17.9113 22.6467 18.0005 22.3329 18.0005C22.0971 18.0005 21.8602 17.9497 21.6375 17.8475L17.3333 15.8742V16.6667C17.3333 16.935 17.2937 17.1941 17.22 17.4383L15.3333 15.3531ZM17.3333 13.675L22 15.8125V6.85293L17.3333 8.99169V13.675Z" fill="#F2F2F7"/>
<line x1="1.71252" y1="2.44226" x2="17.0089" y2="19.3075" stroke="#FF453A" stroke-width="2" stroke-linecap="round"/>
</svg>
