<svg width="25" height="25" viewBox="0 0 25 25" fill="none" xmlns="http://www.w3.org/2000/svg">
<path d="M18.5427 12.1366C18.5427 11.3066 19.2133 10.636 20.0434 10.636C20.8734 10.636 21.544 11.3066 21.544 12.1366C21.544 12.9667 20.8734 13.6373 20.0434 13.6373C19.2133 13.6373 18.5427 12.9667 18.5427 12.1366ZM11.0394 12.1366C11.0394 11.3066 11.71 10.636 12.5401 10.636C13.3701 10.636 14.0407 11.3066 14.0407 12.1366C14.0407 12.9667 13.3701 13.6373 12.5401 13.6373C11.71 13.6373 11.0394 12.9667 11.0394 12.1366ZM6.53745 12.1366C6.53745 12.9667 5.86684 13.6373 5.03679 13.6373C4.20674 13.6373 3.53613 12.9667 3.53613 12.1366C3.53613 11.3066 4.20674 10.636 5.03679 10.636C5.86684 10.636 6.53745 11.3066 6.53745 12.1366Z" fill="white"/>
</svg>
