<svg width="32" height = "32" viewBox = "0 0 32 32" fill = "none" xmlns = "http://www.w3.org/2000/svg" >
    <circle cx="16" cy = "16" r = "16" fill = "#404444" />
        <path d="M23.9727 17.6325C24.0288 17.8419 23.9948 18.0542 23.8943 18.2283C23.7938 18.4023 23.6269 18.5379 23.4176 18.5941L22.3883 18.8699L23.4667 19.4925C23.8418 19.7068 23.9727 20.1878 23.7567 20.5641C23.5408 20.9403 23.0572 21.0683 22.6816 20.8514L21.6032 20.2288L21.879 21.2581C21.9913 21.6773 21.7428 22.1075 21.3238 22.2197C20.9047 22.332 20.4744 22.0836 20.3621 21.6645L19.68 19.1183L17.2849 17.7372V20.5016L19.1489 22.3656C19.4557 22.6723 19.4557 23.1692 19.1489 23.4761C18.9961 23.6298 18.7933 23.7051 18.5937 23.7051C18.3941 23.7051 18.1919 23.6284 18.0384 23.475L17.2849 22.7202V23.9668C17.2849 24.4004 16.9332 24.7521 16.4997 24.7521C16.0661 24.7521 15.7144 24.4004 15.7144 23.9668V22.7216L14.9609 23.4751C14.6542 23.7818 14.1573 23.7818 13.8504 23.4751C13.5435 23.1683 13.5437 22.6715 13.8504 22.3646L15.7144 20.5019V17.7372L13.3204 19.1195L12.6382 21.6657C12.5259 22.0848 12.0957 22.3332 11.6766 22.221C11.2574 22.1087 11.0091 21.6785 11.1213 21.2593L11.3972 20.23L10.3187 20.8527C9.94312 21.0679 9.46019 20.9403 9.24327 20.5641C9.02634 20.1878 9.15771 19.7081 9.53312 19.4912L10.6115 18.8686L9.5822 18.5928C9.16307 18.4805 8.91474 18.0503 9.02696 17.6311C9.13919 17.212 9.56944 16.9637 9.98857 17.0759L12.5348 17.7581L14.9292 16.3466L12.5341 14.9953L9.98893 15.6759C9.5698 15.7871 9.13955 15.5384 9.02732 15.1196C8.9151 14.7008 9.1635 14.2703 9.58256 14.158L10.6119 13.8821L9.53316 13.2612C9.15787 13.0453 9.02667 12.5643 9.24327 12.188C9.45987 11.8118 9.9428 11.6838 10.3184 11.9006L11.3968 12.5232L11.1213 11.4944C11.0088 11.0749 11.2574 10.6447 11.6769 10.5321C12.0964 10.4196 12.5263 10.6683 12.6385 11.0874L13.3207 13.6335L15.7144 15.0149V12.2502L13.8494 10.3875C13.5427 10.0808 13.5427 9.58392 13.8494 9.27702C14.1562 8.97012 14.653 8.97028 14.9599 9.27702L15.7144 10.0305V8.78525C15.7144 8.35173 16.0678 8 16.4997 8C16.9316 8 17.2849 8.35173 17.2849 8.78525V10.0305L18.0384 9.27702C18.3452 8.97028 18.842 8.97028 19.1489 9.27702C19.4558 9.58376 19.4557 10.0806 19.1489 10.3875L17.2849 12.2502V15.0146L19.679 13.6322L20.3612 11.086C20.4735 10.6669 20.9036 10.4186 21.3228 10.5308C21.5322 10.5869 21.699 10.7226 21.7995 10.8966C21.8999 11.0706 21.9339 11.283 21.8778 11.4924L21.602 12.5218L22.6804 11.8991C23.0565 11.6842 23.5408 11.8118 23.7567 12.188C23.9727 12.5643 23.8423 13.044 23.4669 13.2606L22.3885 13.8832L23.4178 14.1591C23.8369 14.2714 24.0853 14.7016 23.973 15.1207C23.8608 15.5398 23.4306 15.7882 23.0114 15.6759L20.4652 14.9937L18.0702 16.3466L20.4642 17.729L23.0104 17.0468C23.4295 16.9355 23.832 17.2137 23.9727 17.6325Z" fill = "#F2F2F7" />
</svg>
