<svg width="25" height="25" viewBox="0 0 17 24" fill="none" xmlns="http://www.w3.org/2000/svg">
<g clip-path="url(#clip0_15_18)">
<path fill-rule="evenodd" clip-rule="evenodd" d="M14 9.75C14 9.3375 14.3375 9 14.75 9C15.1625 9 15.5 9.3375 15.5 9.75V12C15.5 13.0444 15.2855 14.039 14.8981 14.9423L13.7317 13.7759C13.9061 13.2146 14 12.6182 14 12V9.75ZM12.4708 12.515C12.4901 12.346 12.5 12.1742 12.5 12V4.5C12.5 2.05781 10.4844 0 8 0C5.81374 0 3.99048 1.56092 3.5844 3.62858L5 5.04419V4.5C5 2.84766 6.34766 1.5 8 1.5C9.65234 1.5 11 2.84766 11 4.5V11.0442L12.4708 12.515ZM9.09252 14.7936L10.216 15.917C9.56176 16.2881 8.80552 16.5 8 16.5C5.51562 16.5 3.5 14.4844 3.5 12V9.20104L5 10.701V12C5 13.6547 6.34766 15 8 15C8.38513 15 8.75371 14.9268 9.09252 14.7936ZM11.304 17.0051L12.378 18.0791C11.3366 18.8285 10.0954 19.3183 8.75 19.4531V22.5H11.75C12.1625 22.5 12.5 22.8375 12.5 23.25C12.5 23.6625 12.1625 24 11.75 24H4.25C3.8375 24 3.5 23.6625 3.5 23.25C3.5 22.8375 3.8375 22.5 4.25 22.5H7.25V19.4428C3.38891 19.0537 0.5 15.645 0.5 11.7366V9.75C0.5 9.3375 0.8375 9 1.25 9C1.6625 9 2 9.3375 2 9.75V11.7891C2 14.9812 4.40469 17.7703 7.5875 17.9906C8.96335 18.0792 10.2498 17.7035 11.304 17.0051Z" fill="gray"/>
<path d="M1.017 3.88961L15.6156 18.4882" stroke="#FF453A" stroke-width="2" stroke-linecap="round"/>
</g>
<defs>
<clipPath id="clip0_15_18">
<rect width="25" height="25" fill="gray"/>
</clipPath>
</defs>
</svg>
