<svg width="25" height="25" viewBox="0 0 25 25" fill="none" xmlns="http://www.w3.org/2000/svg">
<g clip-path="url(#clip0_268_31)">
<path d="M12.5166 2.00708L15.1428 3.3436L15.9025 2.2228L12.859 0.656489C12.6667 0.558008 12.4228 0.558008 12.2024 0.651799L8.91504 2.32128L9.67475 3.43739L12.5166 2.00708Z" fill="white"/>
<path d="M2.13381 14.6033H0.736328V18.1861C0.736328 18.4253 0.872325 18.6504 1.09273 18.777L3.55475 20.0197L4.31446 18.8989L2.1385 17.7875L2.13381 14.6033Z" fill="white"/>
<path d="M22.918 17.764L20.5264 18.9692L21.2861 20.09L23.9263 18.7582L23.9357 18.7535C24.1655 18.6222 24.2921 18.4112 24.2921 18.1626V14.6033H22.8946L22.918 17.764Z" fill="white"/>
<path d="M13.1542 22.7489V20.7793H11.827V22.702L9.72144 21.6281L8.93359 22.7442L12.1835 24.3809C12.3007 24.4512 12.432 24.4512 12.5117 24.4512C12.6196 24.4512 12.7462 24.4137 12.8072 24.3949L16.0195 22.7677L15.2551 21.675L13.1542 22.7489Z" fill="white"/>
<path d="M3.67199 4.99902L1.10211 6.30741L1.09273 6.3121C0.862946 6.44341 0.736328 6.65444 0.736328 6.90298V9.70264H2.13381V8.13164L3.94867 8.68501L4.34259 7.37663L2.85132 6.93581L4.42701 6.12452L3.67199 4.99902Z" fill="white"/>
<path d="M24.3387 6.87954C24.3058 6.60755 24.1605 6.40121 23.9494 6.30742L21.3373 4.97559L20.5776 6.09639L22.1533 6.89361L20.6808 7.40477L21.1404 8.68502L22.9412 8.04724V9.70265H24.3387V6.90299V6.87954Z" fill="white"/>
</g>
<defs>
<clipPath id="clip0_268_31">
<rect width="25" height="25" fill="white"/>
</clipPath>
</defs>
</svg>
