<svg width="25" height="25" viewBox="0 0 25 25" fill="none" xmlns="http://www.w3.org/2000/svg">
<path d="M7.92532 19.4803H6.77638C6.39184 19.4803 6.07764 19.1661 6.07764 18.7816V17.7405C6.07764 17.3559 6.39184 17.0417 6.77638 17.0417H7.92532C8.30986 17.0417 8.62406 17.3559 8.62406 17.7405V18.7816C8.62406 19.1661 8.30986 19.4803 7.92532 19.4803Z" fill="white"/>
<path d="M18.2985 17.5671H11.7941C11.4002 17.5671 11.0766 17.8906 11.0766 18.2846C11.0766 18.6785 11.4002 19.0021 11.7941 19.0021H18.3032C18.7018 19.0021 19.0207 18.6785 19.0207 18.2846C19.0207 17.886 18.6971 17.5671 18.2985 17.5671ZM7.02483 13.9702C7.20772 13.9702 7.3953 13.8998 7.5313 13.7592L10.1715 11.1189C10.4529 10.8376 10.4529 10.3827 10.1715 10.1013C9.89014 9.81993 9.43526 9.81993 9.15388 10.1013L7.02483 12.2304L6.21354 11.4191C5.93216 11.1377 5.47728 11.1377 5.1959 11.4191C4.91453 11.7004 4.91453 12.1553 5.1959 12.4367L6.51367 13.7545C6.65904 13.8951 6.84194 13.9702 7.02483 13.9702ZM18.2985 11.8083H11.8269C11.433 11.8083 11.1094 12.1319 11.1094 12.5258C11.1094 12.9197 11.433 13.2433 11.8269 13.2433H18.3032C18.7018 13.2433 19.0207 12.9197 19.0207 12.5258C19.0207 12.1319 18.6971 11.8083 18.2985 11.8083ZM19.5506 0.876953H5.16308C3.57332 0.876953 2.28369 2.16658 2.28369 3.75634V21.0233C2.28369 22.613 3.57332 23.9027 5.16308 23.9027H19.5553C21.1451 23.9027 22.4347 22.613 22.4347 21.0233V3.75634C22.43 2.16658 21.1404 0.876953 19.5506 0.876953ZM20.9903 21.0233C20.9903 21.8158 20.3432 22.463 19.5506 22.463H5.16308C4.37054 22.463 3.72338 21.8158 3.72338 21.0233V3.75634C3.72338 2.9638 4.37054 2.31665 5.16308 2.31665H19.5553C20.3478 2.31665 20.995 2.9638 20.995 3.75634V21.0233H20.9903Z" fill="white"/>
<path d="M7.03898 8.2115C7.22187 8.2115 7.40945 8.14116 7.54545 8.00047L10.1857 5.36025C10.467 5.07888 10.467 4.62399 10.1857 4.34262C9.90429 4.06125 9.44941 4.06125 9.16804 4.34262L7.03898 6.47168L6.22769 5.66039C5.94631 5.37901 5.49143 5.37901 5.21005 5.66039C4.92868 5.94176 4.92868 6.39665 5.21005 6.67802L6.52782 7.99578C6.67319 8.13647 6.85609 8.2115 7.03898 8.2115Z" fill="white"/>
<path d="M18.3129 6.04956H11.8366C11.4427 6.04956 11.1191 6.37314 11.1191 6.76706C11.1191 7.16098 11.4427 7.48456 11.8366 7.48456H18.3129C18.7115 7.48456 19.0304 7.16098 19.0304 6.76706C19.0304 6.37314 18.7068 6.04956 18.3129 6.04956Z" fill="white"/>
</svg>
