<svg width="20" height="18" viewBox="0 0 20 18" fill="none" xmlns="http://www.w3.org/2000/svg">
<path d="M0 1.79297C0 0.941406 0.691406 0.25 1.54297 0.25H18.457C19.3086 0.25 20 0.941406 20 1.79297C20 2.15234 19.875 2.5 19.6445 2.77734L12.5 11.4141V16.4258C12.5 17.1562 11.9062 17.75 11.1758 17.75C10.8828 17.75 10.5977 17.6523 10.3633 17.4727L7.98047 15.6211C7.67578 15.3828 7.49609 15.0195 7.49609 14.6328V11.4141L0.355469 2.77734C0.125 2.5 0 2.15234 0 1.79297ZM1.54297 1.5C1.37891 1.5 1.25 1.63281 1.25 1.79297C1.25 1.86328 1.27344 1.92578 1.31641 1.98047L8.60547 10.7891C8.69922 10.9023 8.75 11.043 8.75 11.1875V14.6328L11.1328 16.4844C11.1445 16.4961 11.1602 16.5 11.1758 16.5C11.2148 16.5 11.25 16.4688 11.25 16.4258V11.1875C11.25 11.043 11.3008 10.9023 11.3945 10.7891L18.6836 1.98047C18.7266 1.92969 18.75 1.86328 18.75 1.79297C18.75 1.62891 18.6172 1.5 18.457 1.5H1.54297Z" fill="black"/>
</svg>
