<svg width="25" height="25" viewBox="0 0 25 25" fill="none" xmlns="http://www.w3.org/2000/svg">
<path d="M15.8978 5.25709C16.5215 4.63338 17.5251 4.63338 18.1488 5.25709L19.3587 6.46699C19.9824 7.0907 19.9824 8.09427 19.3587 8.71798L10.4767 17.6C10.1531 17.9189 9.75448 18.158 9.31835 18.2894L5.88091 19.2976C5.72147 19.3211 5.54795 19.3023 5.43071 19.1851C5.31348 19.0678 5.26658 18.8943 5.31817 18.7349L6.33111 15.2974C6.45773 14.8613 6.69689 14.4627 7.02047 14.1391L15.8978 5.25709ZM17.5063 5.89956C17.239 5.63225 16.8076 5.63225 16.5403 5.89956L14.9833 7.45649L17.1593 9.6043L18.7162 8.07551C18.9835 7.80821 18.9835 7.37677 18.7162 7.10946L17.5063 5.89956ZM8.41327 16.2025L10.2234 16.5683L16.4887 10.2749L14.3409 8.09896L8.05217 14.3923L8.41327 16.2025ZM7.30654 15.288C7.26902 15.3725 7.2315 15.4616 7.20337 15.5507L6.42959 18.1909L9.06512 17.4171C9.15891 17.389 9.24801 17.3561 9.33242 17.3139L7.94431 17.0372C7.76611 16.9997 7.62542 16.859 7.58791 16.6808L7.30654 15.288Z" fill="white"/>
</svg>
