<svg width="25" height="25" viewBox="0 0 25 25" fill="none" xmlns="http://www.w3.org/2000/svg">
<g clip-path="url(#clip0_1004_149)">
<path d="M12.4976 24.8546C19.3222 24.8546 24.8546 19.3222 24.8546 12.4976C24.8546 5.67303 19.3222 0.140625 12.4976 0.140625C5.67303 0.140625 0.140625 5.67303 0.140625 12.4976C0.140625 19.3222 5.67303 24.8546 12.4976 24.8546Z" fill="white"/>
<path d="M14.7581 18.0172L15.1426 17.3795C15.7757 16.3196 15.9727 15.1003 15.7523 13.9514L18.7208 10.4858L19.2132 10.9782C19.2741 11.0392 19.3445 11.0767 19.4195 11.0955C19.5743 11.1377 19.7478 11.1002 19.8697 10.9782C20.0479 10.8 20.0479 10.4999 19.8697 10.3217L14.6221 5.07408C14.4439 4.89588 14.1438 4.89588 13.9655 5.07408C13.8483 5.19132 13.8014 5.36952 13.8483 5.52428C13.8671 5.59931 13.9093 5.66966 13.9655 5.73062L14.458 6.22302L10.9924 9.19151C9.84343 8.9711 8.62415 9.16337 7.56431 9.80115L6.92653 10.1857C6.68267 10.3311 6.51854 10.589 6.48102 10.8704C6.4482 11.1564 6.54199 11.4378 6.74833 11.6395L9.70275 14.5939L6.72957 17.5295C6.55137 17.7077 6.56544 18.0219 6.72957 18.1861C6.92653 18.383 7.22666 18.383 7.40486 18.2048L10.3593 15.2504L13.3137 18.2048C13.5154 18.4065 13.8014 18.505 14.0828 18.4721C14.3642 18.4299 14.6127 18.2658 14.7581 18.0172ZM11.0111 14.5939L10.3593 13.9326L10.3546 13.9373L7.40018 10.9829L8.03795 10.5937C8.89145 10.0778 9.88095 9.92308 10.8095 10.1013L11.2456 10.1857L15.1051 6.87487L18.0548 9.8246L14.744 13.6841L14.8284 14.1202C15.0066 15.0488 14.8519 16.0383 14.336 16.8918L13.9468 17.5295L11.0111 14.5939Z" fill="black"/>
</g>
<defs>
<clipPath id="clip0_1004_149">
<rect width="25" height="25" fill="white"/>
</clipPath>
</defs>
</svg>
