<svg width="25" height="25" viewBox="0 0 25 25" fill="none" xmlns="http://www.w3.org/2000/svg">
<path d="M20.8827 14.4484L8.03331 3.02937C7.83635 2.85117 7.57842 2.75269 7.31112 2.75269C6.71086 2.75269 6.22314 3.2404 6.22314 3.84066V21.1873C6.22314 21.797 6.68741 22.2612 7.25485 22.2612C7.55029 22.2612 7.83635 22.1346 8.03331 21.9095L12.9667 16.2586H20.1933C20.7654 16.2586 21.2297 15.7943 21.2297 15.2222C21.2297 14.9268 21.1031 14.6454 20.8827 14.4484ZM12.9151 14.7579C12.479 14.7579 12.0616 14.9502 11.7756 15.2832L7.7238 20.0102V4.62851L18.9787 14.7579H12.9151Z" fill="white"/>
</svg>
