<svg width="25" height="25" viewBox="0 0 25 25" fill="none" xmlns="http://www.w3.org/2000/svg">
<path d="M19.0818 9.4072C18.6785 9.4072 18.355 9.73547 18.355 10.1341V12.3194C18.355 15.6678 15.5178 18.3642 12.1225 18.1438C9.02744 17.9281 6.69204 15.2176 6.69204 12.1131V10.1294C6.69204 9.72609 6.36377 9.40251 5.96516 9.40251C5.56655 9.40251 5.23828 9.73078 5.23828 10.1294V12.0615C5.23828 15.86 8.04732 19.1755 11.799 19.5554V22.5286H8.88206C8.47876 22.5286 8.15518 22.8568 8.15518 23.2554C8.15518 23.6541 8.48345 23.9823 8.88206 23.9823H16.1743C16.5776 23.9823 16.9012 23.6541 16.9012 23.2554C16.9012 22.8521 16.5729 22.5286 16.1743 22.5286H13.2574V19.5648C16.9387 19.1943 19.8181 16.0898 19.8181 12.3194V10.1341C19.8134 9.73547 19.4851 9.4072 19.0818 9.4072ZM12.5212 16.6995C14.9363 16.6995 16.8965 14.7392 16.8965 12.3241V5.03185C16.8965 2.65893 14.9363 0.656494 12.5212 0.656494C10.106 0.656494 8.1458 2.61673 8.1458 5.03185V12.3241C8.1458 14.7392 10.106 16.6995 12.5212 16.6995ZM9.60425 5.03185C9.60425 3.42333 10.9126 2.11494 12.5212 2.11494C14.1297 2.11494 15.4381 3.42333 15.4381 5.03185V12.3241C15.4381 13.9326 14.1297 15.241 12.5212 15.241C10.9126 15.241 9.60425 13.9326 9.60425 12.3241V5.03185Z" fill="white"/>
</svg>
