<svg width="25" height="25" viewBox="0 0 25 25" fill="none" xmlns="http://www.w3.org/2000/svg">
<path d="M20.6246 4.81158C19.1661 4.28166 17.764 4.04249 16.5306 4.02373C14.6079 4.05187 13.2761 4.58179 12.6055 4.90537C11.9349 4.5771 10.5749 4.05187 8.69907 4.01904C7.43289 4.01904 6.02133 4.28635 4.58633 4.80689C3.92041 5.05074 3.47021 5.69321 3.47021 6.40134V16.0524C3.47021 16.5214 3.68593 16.9481 4.07048 17.2248C4.44564 17.4968 4.9146 17.5765 5.3601 17.4405C9.1305 16.2822 11.9958 18.0455 12.1553 18.1487C12.2772 18.219 12.3851 18.294 12.5726 18.294C12.779 18.294 12.8915 18.219 13.0181 18.1487C13.3605 17.9376 16.1367 16.3104 19.8133 17.4405C20.2588 17.5765 20.7278 17.4968 21.1076 17.2248C21.5156 16.9481 21.736 16.5214 21.736 16.0524V6.40134C21.736 5.69321 21.2858 5.05074 20.6246 4.81158ZM12.0943 16.9622C11.3018 16.5777 9.84332 16.0243 7.95812 16.0243C7.07648 16.0243 6.10105 16.1462 5.06466 16.4651C4.92398 16.5073 4.7786 16.4839 4.66136 16.3995C4.54881 16.315 4.48316 16.165 4.48316 16.0524V6.40134C4.48316 6.11996 4.66136 5.86673 4.92398 5.76825C6.25112 5.28522 7.52668 5.03668 8.685 5.04137C10.3263 5.0695 11.5316 5.52908 12.0943 5.79638V16.9622ZM20.7231 16.0571C20.7231 16.1978 20.6574 16.3197 20.5449 16.4041C20.4276 16.4886 20.2823 16.512 20.1416 16.4698C16.9198 15.485 14.2937 16.3995 13.1119 16.9716V5.79638C13.6747 5.52908 14.8799 5.0695 16.5165 5.04137C17.6374 5.04137 18.9364 5.28053 20.2823 5.76825C20.5402 5.86204 20.7184 6.11527 20.7184 6.40134V16.0571H20.7231Z" fill="white"/>
<path d="M11.6956 18.7302L11.705 19.0022C11.7144 19.2554 11.5033 19.4664 11.236 19.4758L2.17113 19.8416C1.90383 19.851 1.67873 19.6587 1.66935 19.4055L1.65997 19.1335C1.65059 18.8802 1.86162 18.6692 2.12892 18.6598L11.1938 18.294C11.4611 18.2847 11.6862 18.4769 11.6956 18.7302Z" fill="white"/>
<path d="M23.4711 19.2085L23.4618 19.4289C23.4477 19.6962 23.2132 19.8978 22.9272 19.8837L13.9185 19.4007C13.6372 19.3867 13.4167 19.1569 13.4308 18.8943L13.4402 18.6738C13.4543 18.4065 13.6887 18.2049 13.9748 18.219L22.9834 18.702C23.2648 18.716 23.4852 18.9458 23.4711 19.2085Z" fill="white"/>
<path d="M14.4811 19.4475V19.5554C14.4811 19.8508 14.2419 20.0947 13.9418 20.0947H11.1374C10.842 20.0947 10.5981 19.8555 10.5981 19.5554V19.4475C10.5981 19.1521 10.8373 18.9082 11.1374 18.9082H13.9418C14.2372 18.9082 14.4811 19.1521 14.4811 19.4475Z" fill="white"/>
<path d="M22.8896 6.38257H23.1147C23.382 6.38257 23.593 6.6827 23.593 7.06255L23.5649 19.0819C23.5649 19.457 23.3492 19.7665 23.0819 19.7665H22.8568C22.5894 19.7665 22.3784 19.4664 22.3784 19.0866L22.4066 7.06724C22.4066 6.69208 22.6223 6.38257 22.8896 6.38257Z" fill="white"/>
<path d="M2.101 6.38257H2.3261C2.59341 6.38257 2.80444 6.6827 2.80444 7.06255L2.7763 19.0819C2.7763 19.457 2.56058 19.7665 2.29328 19.7665H2.06818C1.80087 19.7665 1.58984 19.4664 1.58984 19.0866L1.61798 7.06724C1.61798 6.69208 1.8337 6.38257 2.101 6.38257Z" fill="white"/>
</svg>
