<?xml version="1.0" encoding="utf-8"?>
<!-- Generator: Adobe Illustrator 26.0.3, SVG Export Plug-In . SVG Version: 6.00 Build 0)  -->
<svg version="1.1" xmlns="http://www.w3.org/2000/svg" xmlns:xlink="http://www.w3.org/1999/xlink" x="0px" y="0px"
	 viewBox="0 0 100 100" xml:space="preserve">
<style type="text/css">
	.st0{display:none;}
	.st1{display:inline;fill:#FF0000;}
	.st2{display:inline;}
	.st3{fill:#FF0000;}
	.st4{fill:#00A8E2;}
	.st5{fill:#FFFFFF;}
	.st6{display:inline;fill:none;}
	.st7{font-family:'FontAwesome5Pro-Solid';}
	.st8{font-size:36px;}
</style>
<g id="Layer_2">
	<defs>
		<mask id="cirlceBackground">
			<circle fill="white" cx="50.3" cy="50.7" r="46.4" />
			<circle fill="black" cx="33.9" cy="37.6" r="21.1"/>
			<circle fill="black" cx="74.2" cy="50.7" r="18.5"/>
			<circle fill="black" cx="44.2" cy="77.1" r="15.1"/>
		</mask>
	</defs>
	<circle mask="url(#cirlceBackground)" class="st4" cx="50.3" cy="50.7" r="46.4"/>
</g>

<g id="Layer_3">
	<g>
		<defs>
			<mask id="avatarBackground0">
				<circle fill="white" cx="33.9" cy="37.6" r="21.1"/>
				<path fill="black" d="M33.9,18.5c10.5,0,19.1,8.6,19.1,19.1c0,10.5-8.6,19.1-19.1,19.1s-19.1-8.6-19.1-19.1
					C14.8,27.1,23.4,18.5,33.9,18.5 M33.9,16.5c-11.7,0-21.1,9.4-21.1,21.1s9.4,21.1,21.1,21.1S55,49.3,55,37.6S45.6,16.5,33.9,16.5
					L33.9,16.5z"/>
			</mask>
		</defs>
		<path mask="url(#avatarBackground0)" class="st4" d="M50.5,54.3v1.1c0,1.8-1.4,3.3-3.1,3.3H20.5c-1.7,0-3.1-1.5-3.1-3.3v-1.1c0-4.9,3.7-8.8,8.3-8.8h3.6
			c1.4,0.7,3,1.1,4.7,1.1c1.7,0,3.3-0.4,4.7-1.1h3.6C46.8,45.5,50.5,49.4,50.5,54.3z M24.6,33.4c0-5.5,4.2-9.9,9.3-9.9
			s9.3,4.4,9.3,9.9s-4.2,9.9-9.3,9.9S24.6,38.9,24.6,33.4z"/>
	</g>
	<g>
		<defs>
			<mask id="avatarBackground1">
				<circle fill="white" cx="74.2" cy="50.7" r="18.5"/>
				<path fill="black" d="M74.2,34.2c9.1,0,16.5,7.4,16.5,16.5s-7.4,16.5-16.5,16.5s-16.5-7.4-16.5-16.5S65.1,34.2,74.2,34.2
			 		M74.2,32.2c-10.2,0-18.5,8.3-18.5,18.5S64,69.2,74.2,69.2s18.5-8.3,18.5-18.5S84.4,32.2,74.2,32.2L74.2,32.2z"/>
			</mask>
		</defs>
		<path mask="url(#avatarBackground1)" class="st4" d="M89,65.7v1c0,1.6-1.2,2.9-2.8,2.9h-24c-1.5,0-2.8-1.3-2.8-2.9v-1c0-4.3,3.3-7.9,7.4-7.9H70
			c1.3,0.6,2.7,1,4.2,1s2.9-0.4,4.2-1h3.2C85.7,57.9,89,61.4,89,65.7z M65.9,47.1c0-4.9,3.7-8.8,8.3-8.8c4.6,0,8.3,4,8.3,8.8
			s-3.7,8.8-8.3,8.8C69.6,55.9,65.9,52,65.9,47.1z"/>
	</g>
	<g>
		<defs>
			<mask id="avatarBackground2">
				<circle fill="white" cx="44.2" cy="77.1" r="15.1"/>
				<path fill="black" d="M44.2,64c7.2,0,13.1,5.9,13.1,13.1s-5.9,13.1-13.1,13.1s-13.1-5.9-13.1-13.1S37,64,44.2,64 M44.2,62
					c-8.3,0-15.1,6.7-15.1,15.1s6.7,15.1,15.1,15.1c8.3,0,15.1-6.7,15.1-15.1S52.6,62,44.2,62L44.2,62z"/>
			</mask>
		</defs>
		<path mask="url(#avatarBackground2)" class="st4" d="M56.2,89.5v0.8c0,1.3-1,2.4-2.3,2.4H34.5c-1.2,0-2.3-1.1-2.3-2.4v-0.8c0-3.5,2.7-6.4,6-6.4h2.6
			c1,0.5,2.2,0.8,3.4,0.8c1.2,0,2.4-0.3,3.4-0.8h2.6C53.6,83.1,56.2,86,56.2,89.5z M37.5,74.4c0-4,3-7.2,6.8-7.2
			c3.7,0,6.8,3.2,6.8,7.2s-3,7.2-6.8,7.2C40.5,81.5,37.5,78.3,37.5,74.4z"/>
	</g>
</g>
</svg>
