<svg width="25" height="25" viewBox="0 0 25 25" fill="none" xmlns="http://www.w3.org/2000/svg">
<g clip-path="url(#clip0_747_103)">
<path d="M12.4976 24.8546C19.3222 24.8546 24.8546 19.3222 24.8546 12.4976C24.8546 5.67303 19.3222 0.140625 12.4976 0.140625C5.67303 0.140625 0.140625 5.67303 0.140625 12.4976C0.140625 19.3222 5.67303 24.8546 12.4976 24.8546Z" fill="white"/>
<path d="M16.3851 5.26159C17.037 4.60974 18.0874 4.60974 18.7393 5.26159L20.0055 6.52777C20.6573 7.17962 20.6573 8.23008 20.0055 8.88193L10.7155 18.1719C10.3778 18.5096 9.96043 18.7534 9.50555 18.8894L5.90866 19.9446C5.74453 19.968 5.56163 19.9493 5.4397 19.8273C5.31778 19.7054 5.27088 19.5225 5.32247 19.3584L6.37761 15.7662C6.51361 15.3066 6.76216 14.8939 7.09512 14.5563L16.3851 5.26159ZM18.0687 5.9322C17.7873 5.65082 17.3371 5.65082 17.0604 5.9322L15.4331 7.55947L17.7076 9.80577L19.3348 8.20663C19.6162 7.92526 19.6162 7.47506 19.3348 7.19838L18.0687 5.9322ZM8.55826 16.7088L10.4528 17.0886L17.0088 10.5045L14.7625 8.23008L8.1784 14.8142L8.55826 16.7088ZM7.39994 15.7521C7.35773 15.8412 7.3249 15.935 7.29208 16.0288L6.48078 18.7863L9.23824 17.975C9.33672 17.9468 9.43051 17.9093 9.51961 17.8671L8.06585 17.5764C7.87827 17.5388 7.72821 17.3935 7.69069 17.2012L7.39994 15.7521Z" fill="black"/>
</g>
<defs>
<clipPath id="clip0_747_103">
<rect width="25" height="25" fill="white"/>
</clipPath>
</defs>
</svg>
