<?xml version="1.0" encoding="UTF-8" standalone="no"?>
<svg
   width="25"
   height="25"
   viewBox="0 0 25 25"
   version="1.1"
   xmlns="http://www.w3.org/2000/svg">
  <path
     d="m 18.721468,4.3035465 c -1.119622,-1.1601953 -2.939115,-1.1601953 -4.058844,0 L 6.1899915,13.082655 c -1.7994964,1.869857 -1.7994964,4.894653 0,6.759209 1.7994964,1.869747 4.7186365,1.869747 6.5232065,0 l 6.933045,-7.178685 c 0.239935,-0.253805 0.629841,-0.253805 0.869775,0 0.244838,0.248615 0.244838,0.652628 0,0.901243 l -6.933045,7.178685 c -2.284438,2.366977 -6.0133648,2.366977 -8.2627352,0 -2.2843534,-2.366977 -2.2843534,-6.230834 0,-8.561584 L 13.792849,3.402326 c 1.599597,-1.6574139 4.198797,-1.6574139 5.798394,0 1.599491,1.6574249 1.599491,4.3507377 0,6.0081516 L 11.433478,17.863327 C 10.348817,18.98723 8.5593291,18.883631 7.5696082,17.645748 6.7848281,16.5478 6.8648026,15.05092 7.7945453,14.092687 L 14.722634,6.9191713 c 0.239935,-0.2537948 0.629841,-0.2537948 0.869775,0 0.244838,0.2486148 0.244838,0.6526057 0,0.9012205 l -6.92811,7.1683472 c -0.5148514,0.502421 -0.5298486,1.300064 -0.1299653,1.854285 0.4998648,0.647436 1.4695573,0.704316 2.0344853,0.11387 l 8.157659,-8.4476369 c 1.119728,-1.1601953 1.119728,-3.0403354 -0.005,-4.2057106 z"
     fill="white" />
</svg>
