<svg width="25" height="25" viewBox="0 0 25 25" fill="none" xmlns="http://www.w3.org/2000/svg">
<path d="M23.7622 10.9361L2.75299 1.9322C2.56072 1.85248 2.36376 1.76807 2.16211 1.76807C1.75881 1.76807 1.36019 1.9322 1.06944 2.23702C0.638003 2.7388 0.539523 3.41879 0.820896 3.98153L5.16342 12.3149L0.820896 20.6482C0.539523 21.2109 0.638003 21.8909 1.06944 22.3505C1.36019 22.6553 1.75881 22.8195 2.16211 22.8195C2.35907 22.8195 2.56072 22.7819 2.75299 22.6975L23.7622 13.6936C24.3156 13.4591 24.672 12.9151 24.672 12.3149C24.6297 11.7146 24.3156 11.1706 23.7622 10.9361ZM2.16211 3.31562C2.16211 3.31093 2.16211 3.31562 2.16211 3.31562L21.4221 11.5692H6.46243L2.16211 3.31562ZM2.15273 21.3423L6.46243 13.0652H21.3799L2.15273 21.3423Z" fill="black"/>
</svg>
