<svg width="25" height="25" viewBox="0 0 25 25" fill="none" xmlns="http://www.w3.org/2000/svg">
<g clip-path="url(#clip0_9_1925)">
<path d="M12.4976 24.8546C19.3222 24.8546 24.8546 19.3222 24.8546 12.4977C24.8546 5.67309 19.3222 0.140686 12.4976 0.140686C5.67303 0.140686 0.140625 5.67309 0.140625 12.4977C0.140625 19.3222 5.67303 24.8546 12.4976 24.8546Z" fill="white"/>
<path d="M19.9962 14.0077L9.86679 5.00843C9.71203 4.86775 9.51038 4.78802 9.29935 4.78802C8.82571 4.78802 8.44116 5.17257 8.44116 5.64621V19.3209C8.44116 19.7993 8.80695 20.1698 9.25245 20.1698C9.48693 20.1698 9.71203 20.0713 9.86679 19.8931L13.7544 15.438H19.4522C19.9024 15.438 20.2682 15.0722 20.2682 14.622C20.2682 14.3828 20.1697 14.1624 19.9962 14.0077ZM13.7169 14.2515C13.3746 14.2515 13.0463 14.4016 12.8165 14.6642L9.62293 18.3924V6.26523L18.4956 14.2515H13.7169Z" fill="black"/>
</g>
<defs>
<clipPath id="clip0_9_1925">
<rect width="25" height="25" fill="white"/>
</clipPath>
</defs>
</svg>
