<svg width="25" height="25" viewBox="0 0 25 25" fill="none" xmlns="http://www.w3.org/2000/svg">
<g clip-path="url(#clip0_268_31)">
<path d="M12.5166 2.00708L15.1428 3.3436L15.9025 2.2228L12.859 0.656489C12.6667 0.558008 12.4228 0.558008 12.2024 0.651799L8.91504 2.32128L9.67475 3.43739L12.5166 2.00708Z" fill="white"/>
<path d="M2.13381 14.6033H0.736328V18.1861C0.736328 18.4253 0.872325 18.6504 1.09273 18.777L3.55475 20.0197L4.31446 18.8989L2.1385 17.7875L2.13381 14.6033Z" fill="white"/>
<path d="M22.918 17.764L20.5264 18.9692L21.2861 20.09L23.9263 18.7582L23.9357 18.7535C24.1655 18.6222 24.2921 18.4112 24.2921 18.1626V14.6033H22.8946L22.918 17.764Z" fill="white"/>
<path d="M13.1542 22.7489V20.7793H11.827V22.702L9.72144 21.6281L8.93359 22.7442L12.1835 24.3809C12.3007 24.4512 12.432 24.4512 12.5117 24.4512C12.6196 24.4512 12.7462 24.4137 12.8072 24.3949L16.0195 22.7677L15.2551 21.675L13.1542 22.7489Z" fill="white"/>
<path d="M3.67199 4.99902L1.10211 6.30741L1.09273 6.3121C0.862946 6.44341 0.736328 6.65444 0.736328 6.90298V9.70264H2.13381V8.13164L3.94867 8.68501L4.34259 7.37663L2.85132 6.93581L4.42701 6.12452L3.67199 4.99902Z" fill="white"/>
<path d="M24.3387 6.87954C24.3058 6.60755 24.1605 6.40121 23.9494 6.30742L21.3373 4.97559L20.5776 6.09639L22.1533 6.89361L20.6808 7.40477L21.1404 8.68502L22.9412 8.04724V9.70265H24.3387V6.90299V6.87954Z" fill="white"/>
<path transform="scale(0.9) translate(6,5) " d="M10.8978 1.25709C11.5215 0.633379 12.5251 0.633379 13.1488 1.25709L14.3587 2.46699C14.9824 3.0907 14.9824 4.09427 14.3587 4.71798L5.47667 13.6C5.15309 13.9189 4.75448 14.158 4.31835 14.2894L0.880911 15.2976C0.721466 15.3211 0.547953 15.3023 0.430714 15.1851C0.313476 15.0678 0.26658 14.8943 0.318165 14.7349L1.33111 11.2974C1.45773 10.8613 1.69689 10.4627 2.02047 10.1391L10.8978 1.25709ZM12.5063 1.89956C12.239 1.63225 11.8076 1.63225 11.5403 1.89956L9.98333 3.45649L12.1593 5.6043L13.7162 4.07551C13.9835 3.80821 13.9835 3.37677 13.7162 3.10946L12.5063 1.89956ZM3.41327 12.2025L5.22344 12.5683L11.4887 6.27491L9.34086 4.09896L3.05217 10.3923L3.41327 12.2025ZM2.30654 11.288C2.26902 11.3725 2.2315 11.4616 2.20337 11.5507L1.42959 14.1909L4.06512 13.4171C4.15891 13.389 4.24801 13.3561 4.33242 13.3139L2.94431 13.0372C2.76611 12.9997 2.62542 12.859 2.58791 12.6808L2.30654 11.288Z" fill="white"/>
<path d="M6.12404 8.5L18.9482 16.5" stroke="white" stroke-width="2" stroke-linecap="round"/>
</g>
<defs>
<clipPath id="clip0_268_31">
<rect width="25" height="25" fill="white"/>
</clipPath>
</defs>
</svg>
