<?xml version="1.0" encoding="UTF-8" standalone="no"?>
<svg
   width="60"
   height="60"
   viewBox="0 0 60 60"
   fill="none"
   xmlns="http://www.w3.org/2000/svg">
  <path
     d="m 30.472511,53.711204 c 13.360893,0 24.192033,-10.810431 24.192033,-24.145777 0,-13.335347 -10.83114,-24.1457451 -24.192033,-24.1457451 -13.360893,0 -24.1919951,10.8103981 -24.1919951,24.1457451 0,13.335346 10.8311021,24.145777 24.1919951,24.145777 z"
     fill="#ffffff"/>
  <path
     d="m 41.895417,27.158923 -3.606697,-1.804936 3.606697,-1.794865 1.808348,-3.609872 1.798351,3.609872 3.61674,1.794865 -3.61674,1.804936 -1.798351,3.599804 z"
     fill="#ffffff"/>
  <path
     d="m 43.703812,21.292941 1.175454,2.346413 0.180806,0.360967 0.361707,0.180509 2.35086,1.173206 -2.360902,1.173158 -0.361707,0.180509 -0.180806,0.360967 -1.175455,2.346413 -1.175453,-2.346413 -0.180854,-0.360967 -0.361659,-0.180509 -2.340818,-1.173158 2.350861,-1.173206 0.361707,-0.180509 0.180806,-0.360967 z m 0,-2.687287 -2.260481,4.502246 -4.51087,2.246136 4.51087,2.246087 2.250438,4.502246 2.250391,-4.502246 4.51092,-2.246087 -4.51092,-2.246136 z"
     fill="#00a9e3"/>
  <path
     d="m 33.456262,17.211848 -1.818387,-0.912515 1.818387,-0.912467 0.914263,-1.814959 0.904173,1.814959 1.828478,0.912467 -1.828478,0.912515 -0.904173,1.814912 z"
     fill="#ffffff"/>
  <path
     d="m 34.370525,14.915598 0.281324,0.561523 0.180853,0.361016 0.36166,0.180459 0.562598,0.280786 -0.562598,0.280736 -0.36166,0.180508 -0.180853,0.360969 -0.281324,0.561521 -0.281274,-0.561521 -0.180855,-0.360969 -0.361658,-0.180508 -0.562598,-0.280736 0.562598,-0.280786 0.361658,-0.180459 0.180855,-0.361016 z m 0,-2.687334 -1.366301,2.717402 -2.72261,1.353716 2.72261,1.353666 1.356259,2.717403 1.356308,-2.717403 2.722609,-1.353666 -2.722609,-1.353716 z"
     fill="#00a9e3"/>
  <path
     d="m 26.343479,42.791523 -3.365592,-6.728335 -6.741225,-3.359157 -1.085026,-0.541476 1.085026,-0.541476 6.741225,-3.359157 3.365592,-6.728287 0.542513,-1.082953 0.532472,1.082953 3.375634,6.728287 6.741177,3.359157 1.085026,0.541476 -1.085026,0.541476 -6.741177,3.359157 -3.365593,6.728335 -0.542513,1.082952 z"
     fill="#ffffff"/>
  <path
     d="m 26.885945,22.2455 3.074226,6.126723 0.241106,0.48129 0.482213,0.240645 6.138459,3.068349 -6.138459,3.068349 -0.482213,0.240692 -0.241106,0.481292 -3.074226,6.126674 -3.074228,-6.126674 -0.241154,-0.481292 -0.482212,-0.240692 -6.138412,-3.068349 6.138412,-3.068349 0.482212,-0.240645 0.241154,-0.48129 z m 0,-3.589779 -1.255839,2.516898 -3.244991,6.487642 -6.500118,3.238833 -2.521672,1.25339 2.521672,1.253438 6.500118,3.238785 3.244991,6.487691 1.255839,2.516849 1.255791,-2.516849 3.245038,-6.487691 6.50007,-3.238785 2.52172,-1.253438 -2.52172,-1.25339 -6.490028,-3.238833 -3.245039,-6.487642 z"
     fill="#00a9e3"/>
  <path
     d="m 30.472511,3.9155906 c -14.185686,0 -25.6989677,11.4812504 -25.6989677,25.6498364 0,14.168585 11.5032397,25.649691 25.6989677,25.649691 14.195728,0 25.698828,-11.481106 25.698828,-25.649691 0,-14.168586 -11.5031,-25.6498364 -25.698828,-25.6498364 z m 0,48.3919274 c -12.588272,0 -22.7854819,-10.177889 -22.7854819,-22.742091 0,-12.564203 10.2072519,-22.7419212 22.7854819,-22.7419212 12.578229,0 22.785658,10.1777182 22.785658,22.7419212 0,12.564202 -10.197387,22.742091 -22.785658,22.742091 z"
     fill="#00a9e3"/>
  <path
     d="m 18.597565,32.202647 4.822319,-0.621707 0.442044,-1.744752 z"
     fill="#ffffff"/>
  <path
     d="m 23.861928,29.836188 -5.264363,2.366459 4.822319,-0.621707 z"
     fill="#00a9e3"/>
  <path
     d="m 26.916071,23.839907 -0.411918,4.241508 -1.697883,0.601661 z"
     fill="#ffffff"/>
  <path
     d="m 26.916071,23.839907 -2.109801,4.843169 1.697883,-0.601661 z"
     fill="#00a9e3"/>
  <path
     d="m 30.472511,8.6584823 c 2.83312,0 5.575813,0.5514987 8.157784,1.6444737 2.491498,1.052884 4.731893,2.556989 6.660841,4.482201 1.928899,1.925259 3.435887,4.161372 4.490787,6.648105 1.09483,2.577035 1.647624,5.314484 1.647624,8.142187 0,2.827703 -0.552794,5.565153 -1.647624,8.142187 -1.0549,2.486733 -2.561888,4.722846 -4.490787,6.648105 -1.928948,1.925212 -4.169343,3.429318 -6.660841,4.482201 -2.581971,1.092975 -5.324664,1.644474 -8.157784,1.644474 -2.833121,0 -5.575814,-0.551499 -8.157787,-1.644474 -2.491496,-1.052883 -4.731892,-2.556989 -6.66084,-4.482201 -1.928899,-1.925259 -3.435886,-4.161372 -4.490786,-6.648105 -1.095068,-2.577034 -1.6476243,-5.314484 -1.6476243,-8.142187 0,-2.827703 0.5525563,-5.565152 1.6476243,-8.142187 1.0549,-2.486733 2.561887,-4.722846 4.490786,-6.648105 1.928948,-1.925212 4.169344,-3.429317 6.66084,-4.482201 2.592015,-1.092975 5.334708,-1.6444737 8.157787,-1.6444737 z m 0,-0.8021675 c -12.015632,0 -21.7506991,9.7164532 -21.7506991,21.7091122 0,11.992658 9.7350671,21.709254 21.7506991,21.709254 12.015632,0 21.750842,-9.716596 21.750842,-21.709254 0,-11.992659 -9.73521,-21.7091122 -21.750842,-21.7091122 z"
     fill="#00a9e3"/>
</svg>
