<svg width="25" height="25" viewBox="0 0 25 25" fill="none" xmlns="http://www.w3.org/2000/svg">
<g clip-path="url(#clip0_268_31)">
<path d="M12.5166 2.00708L15.1428 3.3436L15.9025 2.2228L12.859 0.656489C12.6667 0.558008 12.4228 0.558008 12.2024 0.651799L8.91504 2.32128L9.67475 3.43739L12.5166 2.00708Z" fill="white"/>
<path d="M2.13381 14.6033H0.736328V18.1861C0.736328 18.4253 0.872325 18.6504 1.09273 18.777L3.55475 20.0197L4.31446 18.8989L2.1385 17.7875L2.13381 14.6033Z" fill="white"/>
<path d="M22.918 17.764L20.5264 18.9692L21.2861 20.09L23.9263 18.7582L23.9357 18.7535C24.1655 18.6222 24.2921 18.4112 24.2921 18.1626V14.6033H22.8946L22.918 17.764Z" fill="white"/>
<path d="M13.1542 22.7489V20.7793H11.827V22.702L9.72144 21.6281L8.93359 22.7442L12.1835 24.3809C12.3007 24.4512 12.432 24.4512 12.5117 24.4512C12.6196 24.4512 12.7462 24.4137 12.8072 24.3949L16.0195 22.7677L15.2551 21.675L13.1542 22.7489Z" fill="white"/>
<path d="M3.67199 4.99902L1.10211 6.30741L1.09273 6.3121C0.862946 6.44341 0.736328 6.65444 0.736328 6.90298V9.70264H2.13381V8.13164L3.94867 8.68501L4.34259 7.37663L2.85132 6.93581L4.42701 6.12452L3.67199 4.99902Z" fill="white"/>
<path d="M24.3387 6.87954C24.3058 6.60755 24.1605 6.40121 23.9494 6.30742L21.3373 4.97559L20.5776 6.09639L22.1533 6.89361L20.6808 7.40477L21.1404 8.68502L22.9412 8.04724V9.70265H24.3387V6.90299V6.87954Z" fill="white"/>
<path transform="translate(5,5)" d="M10.0148 0.819747L4.02629 7.13188L2.34743 5.53744C1.97695 5.18572 1.39076 5.20448 1.0578 5.55151C0.874909 5.74378 0.781118 5.98294 0.785808 6.23149L0.635742 13.1064C0.640432 13.3596 0.748292 13.5894 0.921805 13.7535C1.09532 13.9177 1.32511 14.0161 1.58303 14.0068L8.44385 13.5003C8.69239 13.4956 8.92687 13.3877 9.10976 13.1955C9.44272 12.8438 9.42865 12.2576 9.05818 11.9058L7.37932 10.3161L13.3679 4.00395C13.7196 3.63348 13.7055 3.04728 13.335 2.69557L11.3232 0.78692C10.9528 0.435204 10.3666 0.449272 10.0148 0.819747ZM12.6973 3.37086L6.07562 10.3489L8.37819 12.5765L1.56896 13.0782L1.71434 6.20804L4.0638 8.43558L10.6901 1.45753C10.6855 1.45753 12.6973 3.37086 12.6973 3.37086Z" fill="white"/>
</g>
<defs>
<clipPath id="clip0_268_31">
<rect width="25" height="25" fill="white"/>
</clipPath>
</defs>
</svg>
