<svg width="32" height="32" viewBox="0 0 32 32" fill="none" xmlns="http://www.w3.org/2000/svg">
<path d="M25.829 4.43006H6.2182C4.4264 4.43006 2.965 5.88871 2.965 7.68349V21.9578C2.965 23.7556 4.4264 25.2112 6.2182 25.2112H9.47785L7.97119 28.7887C7.64665 29.527 7.94677 30.4035 8.63748 30.7936C8.88959 30.9556 9.16571 31.0217 9.46585 31.0217C9.95165 31.0217 10.4143 30.8116 10.7324 30.4215L14.8682 25.2112H25.817C27.609 25.2112 29.0704 23.7556 29.0704 21.9578V7.67779C29.0704 5.87997 27.609 4.42437 25.817 4.42437L25.829 4.43006ZM6.2182 23.5964C5.31763 23.5964 4.5793 22.8641 4.5793 21.9578V7.67779C4.5793 6.77735 5.31161 6.03907 6.2182 6.03907H12.2571L7.37693 17.6826C7.1684 18.194 7.21486 18.7464 7.51498 19.2085C7.8151 19.6706 8.31935 19.9228 8.85358 19.9228H11.7108L10.1622 23.5927H6.2182V23.5964ZM9.51987 29.4069L14.2019 18.3141H8.91961L14.0639 6.04477H19.4843L16.0027 14.3224H21.4952L9.52567 29.4069H9.51987ZM27.4622 21.9578C27.4622 22.8584 26.7299 23.5964 25.8231 23.5964H16.1589L22.7136 15.3368C23.1037 14.8509 23.1758 14.1843 22.8997 13.6321C22.6236 13.0799 22.0713 12.7059 21.4474 12.7059H18.4037L20.9189 6.71106C21.0088 6.50098 21.0568 6.27288 21.0568 6.04477H25.8231C26.7237 6.04477 27.4622 6.77735 27.4622 7.68349V21.9578H27.4622Z" fill="white"/>
</svg>
