<svg width="32" height="32" viewBox="0 0 32 32" fill="none" xmlns="http://www.w3.org/2000/svg">
  <rect width="32" height="32"/>
  <g transform="translate(2, 2) scale(0.88)">
    <path d="M16.2374 2.10134C7.75079 2.10134 0.924609 7.68938 0.924609 14.5864C0.924609 17.4437 2.11913 20.0619 4.09999 22.1677C3.20561 24.5398 1.34479 26.5436 1.31478 26.5617C0.91858 26.9822 0.810498 27.5941 1.03866 28.1224C1.21874 28.6986 1.73496 29.0405 2.31116 29.0405C6.00283 29.0405 8.86016 27.4922 10.66086 26.2675C12.34761 26.8078 14.2744 27.1203 16.2374 27.1203C24.724 27.1203 31.5502 21.5323 31.5502 14.691C31.5502 7.8497 24.724 2.10134 16.2374 2.10134ZM16.2374 25.205C14.5445 25.205 12.8639 24.9529 11.24272 24.4367C10.67127 24.2496 10.0487 24.3466 9.55639 24.6932C8.2298 25.6672 6.04485 26.8137 3.39169 27.0779C4.05798 26.1715 5.18047 24.6468 5.83475 22.9013L5.84075 22.882C6.09887 22.2038 5.94881 21.4947 5.45653 20.912C3.72283 19.0283 2.79142 16.8974 2.79142 14.6352C2.79142 8.81788 8.82326 4.0758 16.1803 4.0758C23.5974 4.0758 29.5772 8.81788 29.5772 14.6352C29.5772 20.4525 23.6454 25.205 16.2374 25.205ZM17.1977 16.5613H9.51437C8.98614 16.5613 8.55395 16.9935 8.55395 17.4676C8.49992 18.0499 8.98614 18.4821 9.51437 18.4821H17.1977C17.7259 18.4821 18.1041 18.0499 18.1041 17.5217C18.1041 16.9935 17.7259 16.5613 17.1977 16.5613ZM22.9603 10.7987H9.51437C8.98614 10.7987 8.55395 11.2309 8.55395 11.7051C8.49992 12.2874 8.98614 12.7196 9.51437 12.7196H22.9603C23.4885 12.7196 23.8667 12.2874 23.8667 11.7592C23.8667 11.2309 23.4885 10.7987 22.9603 10.7987Z" fill="white"/>
    <path d="M3.84 3.84 L28.16 28.16" stroke="white" stroke-width="2.56" stroke-linecap="round"/>
  </g>
</svg>