<svg width="25" height="25" viewBox="0 0 25 25" fill="none" xmlns="http://www.w3.org/2000/svg">
<path d="M12.6854 1.64136C6.05437 1.64136 0.722351 6.00733 0.722351 11.3956C0.722351 13.6279 1.65557 15.6725 3.20312 17.3185C2.50438 19.1709 1.05062 20.7372 1.02717 20.7513C0.717661 21.0795 0.633249 21.5579 0.811452 21.9706C0.952139 22.4208 1.35544 22.6881 1.80564 22.6881C4.68971 22.6881 6.92194 21.4782 8.3288 20.5215C9.64657 20.9436 11.1519 21.1874 12.6854 21.1874C19.3164 21.1874 24.6484 16.8214 24.6484 11.4753C24.6484 6.12926 19.3164 1.64136 12.6854 1.64136ZM12.6854 19.6914C11.3629 19.6914 10.0499 19.4945 8.78369 19.0912C8.33818 18.9458 7.85047 19.0208 7.46593 19.2928C6.42953 20.0525 4.72254 20.9482 2.64976 21.1546C3.1703 20.4465 4.04724 19.2553 4.5584 17.8907L4.56309 17.8766C4.76474 17.3467 4.64751 16.7933 4.26296 16.3384C2.90768 14.8659 2.1808 13.2011 2.1808 11.4378C2.1808 6.88897 6.8938 3.18422 12.6432 3.18422C18.4348 3.18422 23.1056 6.88897 23.1056 11.4378C23.1056 15.9867 18.477 19.6914 12.6854 19.6914ZM13.4357 12.9385H7.4331C7.02042 12.9385 6.68277 13.2761 6.68277 13.6466C6.64056 14.1015 7.02042 14.4391 7.4331 14.4391H13.4357C13.8484 14.4391 14.1438 14.1015 14.1438 13.6888C14.1438 13.2761 13.8484 12.9385 13.4357 12.9385ZM17.9377 8.43652H7.4331C7.02042 8.43652 6.68277 8.77417 6.68277 9.14464C6.64056 9.59953 7.02042 9.93717 7.4331 9.93717H17.9377C18.3504 9.93717 18.6458 9.59953 18.6458 9.18685C18.6458 8.77417 18.3504 8.43652 17.9377 8.43652Z" fill="white"/>
</svg>
