<svg width="24" height="19" viewBox="0 0 24 19" fill="none" xmlns="http://www.w3.org/2000/svg">
<path d="M23.3333 17.4444H17.3333V15.4444C17.3333 14.3415 16.4363 13.4444 15.3333 13.4444H11.3333C10.2292 13.4444 9.33333 14.3403 9.33333 15.4444V17.4444H0.666667C0.298167 17.4444 0 17.7444 0 18.1111C0 18.4778 0.298167 18.7778 0.666667 18.7778H23.3333C23.7018 18.7778 24 18.4796 24 18.1111C24 17.7426 23.7 17.4444 23.3333 17.4444ZM16 17.4444H10.6667V15.4444C10.6667 15.0778 10.9667 14.7778 11.3333 14.7778H15.3333C15.7012 14.7778 16 15.0773 16 15.4444V17.4444ZM1.88833 14.7694C2.30625 14.8361 2.66667 14.5153 2.66667 14.1111V2.11108C2.66667 1.74275 2.965 1.44442 3.33333 1.44442H20.6667C21.0333 1.44442 21.3333 1.74275 21.3333 2.11108V14.1111C21.3333 14.4793 21.6318 14.7778 22 14.7778C22.3682 14.7778 22.6667 14.4793 22.6667 14.1111V2.11108C22.6667 1.0065 21.7708 0.111084 20.6667 0.111084H3.33333C2.22875 0.111084 1.33333 1.0065 1.33333 2.11108V14.0778C1.33333 14.4069 1.56083 14.7153 1.88833 14.7694Z" fill="white"/>
</svg>
