<svg width="9" height="15" viewBox="0 0 9 15" fill="none" xmlns="http://www.w3.org/2000/svg">
<path d="M8.11816 7.20508C8.11816 6.99756 8.03516 6.80664 7.87744 6.65723L1.30322 0.21582C1.15381 0.074707 0.971191 0 0.755371 0C0.332031 0 0 0.32373 0 0.755371C0 0.962891 0.0830078 1.15381 0.21582 1.29492L6.25879 7.20508L0.21582 13.1152C0.0830078 13.2563 0 13.439 0 13.6548C0 14.0864 0.332031 14.4102 0.755371 14.4102C0.971191 14.4102 1.15381 14.3354 1.30322 14.186L7.87744 7.75293C8.03516 7.59521 8.11816 7.4126 8.11816 7.20508Z" fill="#EBEBF5" fill-opacity="0.3"/>
</svg>
