<svg width="25" height="25" viewBox="0 0 25 25" fill="none" xmlns="http://www.w3.org/2000/svg">
    <path
        d="M7.67222 12.1459C7.67222 13.595 6.49514 14.7721 5.04607 14.7721C3.597 14.7721 2.41992 13.595 2.41992 12.1459C2.41992 10.6969 3.597 9.51978 5.04607 9.51978C6.49514 9.51978 7.67222 10.6969 7.67222 12.1459ZM15.1755 12.1459C15.1755 13.595 13.9984 14.7721 12.5494 14.7721C11.1003 14.7721 9.9232 13.595 9.9232 12.1459C9.9232 10.6969 11.1003 9.51978 12.5494 9.51978C13.9984 9.51978 15.1755 10.6969 15.1755 12.1459ZM20.0526 14.7721C18.6036 14.7721 17.4265 13.595 17.4265 12.1459C17.4265 10.6969 18.6036 9.51978 20.0526 9.51978C21.5017 9.51978 22.6788 10.6969 22.6788 12.1459C22.6788 13.595 21.5017 14.7721 20.0526 14.7721Z"
        fill="#787878" />
</svg>
