<svg width="25" height="22" viewBox="0 0 25 22" fill="none" xmlns="http://www.w3.org/2000/svg">
<path d="M21.5624 0.194824H3.55454C1.89912 0.194824 0.553223 1.54073 0.553223 3.19614V18.2027C0.553223 19.8581 1.89912 21.204 3.55454 21.204H21.5624C23.2178 21.204 24.5637 19.8581 24.5637 18.2027V3.19614C24.5637 1.54073 23.2178 0.194824 21.5624 0.194824ZM9.32268 5.40023C11.2407 5.40023 12.793 6.95247 12.793 8.8705C12.793 10.7885 11.2407 12.3408 9.32268 12.3408C7.40466 12.3408 5.85242 10.7885 5.85242 8.8705C5.85242 6.95247 7.40466 5.40023 9.32268 5.40023ZM13.3838 18.9061H5.44911C4.74099 18.9061 4.16418 18.3293 4.16418 17.6212C4.16418 15.8439 5.60387 12.9035 7.38121 12.9035H9.41648H11.4517C13.2291 12.9035 14.6688 15.8439 14.6688 17.6212C14.6688 18.3293 14.092 18.9061 13.3838 18.9061ZM22.4628 8.5094C22.4628 9.4051 21.7406 10.1273 20.8449 10.1273H15.405C14.5093 10.1273 13.7871 9.4051 13.7871 8.5094V4.24191C13.7871 3.3462 14.5093 2.62401 15.405 2.62401H20.8449C21.7406 2.62401 22.4628 3.3462 22.4628 4.24191V8.5094Z" fill="#AEAEAE"/>
</svg>
