<svg width="25" height="25" viewBox="0 0 25 25" fill="none" xmlns="http://www.w3.org/2000/svg">
<path d="M19.4849 21.2906H4.85353C3.19812 21.2906 1.85222 19.9494 1.85222 18.2893V5.95574C1.85222 5.54306 1.51457 5.20541 1.10189 5.20541C0.68921 5.20541 0.351562 5.54306 0.351562 5.95574V18.2893C0.351562 20.7747 2.36807 22.7912 4.85353 22.7912H19.4849C19.8976 22.7912 20.2353 22.4536 20.2353 22.0409C20.2353 21.6282 19.8976 21.2906 19.4849 21.2906ZM8.65207 7.83156C9.27578 7.83156 9.77756 7.32509 9.77756 6.70607C9.77756 6.08705 9.27578 5.58058 8.65207 5.58058C8.03305 5.58058 7.52658 6.08705 7.52658 6.70607C7.52658 7.32509 8.03305 7.83156 8.65207 7.83156ZM17.4028 7.26413C16.8729 6.52318 15.5973 6.51849 15.1002 7.26413L13.0368 10.1435L12.7085 9.72614C12.1739 9.04616 10.9734 9.04147 10.4388 9.72614L7.44216 13.4965C7.10452 13.9233 7.05762 14.5048 7.31555 14.9738C7.56409 15.3864 8.04712 15.71 8.57704 15.71H20.7324C21.2482 15.71 21.7265 15.438 21.9751 15.0019C22.2424 14.5376 22.2143 13.9796 21.9001 13.5434L17.4028 7.26413ZM8.75524 14.2047L11.4892 10.6594L12.4318 11.8646C12.6335 12.1225 13.2572 12.3617 13.6324 11.8411L16.1835 8.14576L20.5307 14.2047H8.75524ZM21.7359 2.2041H7.15141C5.496 2.2041 4.1501 3.55 4.1501 5.20541V15.71C4.1501 17.3701 5.496 18.7113 7.15141 18.7113H21.7359C23.3913 18.7113 24.7372 17.3701 24.7372 15.71V5.20541C24.7372 3.55 23.3913 2.2041 21.7359 2.2041ZM23.2366 15.71C23.2366 16.5354 22.5613 17.2107 21.7359 17.2107H7.15141C6.32605 17.2107 5.65076 16.5354 5.65076 15.71V5.20541C5.65076 4.38005 6.32605 3.70476 7.15141 3.70476H21.7359C22.5613 3.70476 23.2366 4.38005 23.2366 5.20541V15.71Z" fill="white"/>
</svg>
