<svg width="25" height="25" viewBox="0 0 25 25" fill="none" xmlns="http://www.w3.org/2000/svg">
<g clip-path="url(#clip0_318_81)">
<path d="M12.4646 24.4796C19.1157 24.4796 24.5074 19.0879 24.5074 12.4368C24.5074 5.78578 19.1157 0.394043 12.4646 0.394043C5.81361 0.394043 0.421875 5.78578 0.421875 12.4368C0.421875 19.0879 5.81361 24.4796 12.4646 24.4796Z" fill="#FF0000"/>
<path d="M13.8295 15.3957L15.0816 17.8624C15.2457 18.1813 15.6115 18.3361 15.9069 18.2376L18.2283 17.5435C18.5565 17.4451 18.7723 17.1356 18.7488 16.7932C18.3737 10.8891 13.2574 6.39648 7.35789 6.77164C7.01556 6.79509 6.73887 7.04833 6.6826 7.38598L6.28868 9.77765C6.2324 10.1247 6.43405 10.467 6.76701 10.5889L9.37909 11.5175C9.6886 11.6253 10.0309 11.5175 10.2185 11.2549L11.208 9.92302C12.8822 10.6124 14.2797 11.8457 15.1801 13.4167L13.9842 14.5282C13.7451 14.7486 13.6794 15.105 13.8295 15.3957Z" fill="white"/>
</g>
<defs>
<clipPath id="clip0_318_81">
<rect width="25" height="25" fill="white"/>
</clipPath>
</defs>
</svg>
