<svg width="25" height="25" viewBox="0 0 25 25" fill="none" xmlns="http://www.w3.org/2000/svg">
<path d="M1.99316 4.99447C1.99316 4.58179 2.33081 4.24414 2.74349 4.24414H22.252C22.6647 4.24414 23.0024 4.58179 23.0024 4.99447C23.0024 5.40715 22.6647 5.7448 22.252 5.7448H2.74349C2.33081 5.7448 1.99316 5.41184 1.99316 4.99447ZM1.99316 12.4978C1.99316 12.0851 2.33081 11.7474 2.74349 11.7474H22.252C22.6647 11.7474 23.0024 12.0851 23.0024 12.4978C23.0024 12.9104 22.6647 13.2481 22.252 13.2481H2.74349C2.33081 13.2481 1.99316 12.9104 1.99316 12.4978ZM22.252 20.7514H2.74349C2.33081 20.7514 1.99316 20.4137 1.99316 20.001C1.99316 19.5884 2.33081 19.2507 2.74349 19.2507H22.252C22.6647 19.2507 23.0024 19.5884 23.0024 20.001C23.0024 20.4137 22.6647 20.7514 22.252 20.7514Z" fill="white"/>
</svg>
