<svg width="25" height="25" viewBox="0 0 25 25" fill="none" xmlns="http://www.w3.org/2000/svg">
<g clip-path="url(#clip0_1004_150)">
<path d="M12.4976 24.8546C19.3222 24.8546 24.8546 19.3222 24.8546 12.4976C24.8546 5.67303 19.3222 0.140625 12.4976 0.140625C5.67303 0.140625 0.140625 5.67303 0.140625 12.4976C0.140625 19.3222 5.67303 24.8546 12.4976 24.8546Z" fill="white"/>
<path d="M16.3195 5.34148L10.331 11.6536L8.65212 10.0592C8.28164 9.70745 7.69545 9.72621 7.36249 10.0732C7.1796 10.2655 7.08581 10.5047 7.0905 10.7532L6.94043 17.6281C6.94512 17.8813 7.05298 18.1111 7.22649 18.2753C7.40001 18.4394 7.62979 18.5379 7.88772 18.5285L14.7485 18.022C14.9971 18.0173 15.2316 17.9095 15.4145 17.7172C15.7474 17.3655 15.7333 16.7793 15.3629 16.4276L13.684 14.8378L19.6726 8.52568C20.0243 8.15521 20.0102 7.56901 19.6397 7.2173L17.6279 5.30865C17.2574 4.95693 16.6712 4.971 16.3195 5.34148ZM19.002 7.89259L12.3803 14.8706L14.6829 17.0982L7.87365 17.6L8.01903 10.7298L10.3685 12.9573L16.9948 5.97925C16.9901 5.97925 19.002 7.89259 19.002 7.89259Z" fill="black"/>
</g>
<defs>
<clipPath id="clip0_1004_150">
<rect width="25" height="25" fill="white"/>
</clipPath>
</defs>
</svg>
