<svg width="25" height="26" viewBox="0 0 25 26" fill="none" xmlns="http://www.w3.org/2000/svg">
<path d="M20.2966 19.9135H4.93363C3.52677 19.9135 2.38721 18.7692 2.38721 17.367V6.17777C2.38721 4.77091 3.53146 3.63135 4.93363 3.63135H20.2966C21.7035 3.63135 22.843 4.7756 22.843 6.17777V17.367C22.843 18.7739 21.6988 19.9135 20.2966 19.9135ZM4.93363 4.89284C4.22551 4.89284 3.6487 5.46965 3.6487 6.17777V17.367C3.6487 18.0752 4.22551 18.652 4.93363 18.652H20.2966C21.0047 18.652 21.5815 18.0752 21.5815 17.367V6.17777C21.5815 5.46965 21.0047 4.89284 20.2966 4.89284H4.93363Z" fill="black"/>
<path d="M19.5881 8.56452H11.0906C10.7389 8.56452 10.4575 8.28315 10.4575 7.93143C10.4575 7.57971 10.7389 7.29834 11.0906 7.29834H19.5881C19.9398 7.29834 20.2212 7.57971 20.2212 7.93143C20.2212 8.28315 19.9398 8.56452 19.5881 8.56452Z" fill="black"/>
<path d="M19.5881 12.3773H11.0906C10.7389 12.3773 10.4575 12.0959 10.4575 11.7442C10.4575 11.3925 10.7389 11.1111 11.0906 11.1111H19.5881C19.9398 11.1111 20.2212 11.3925 20.2212 11.7442C20.2212 12.0959 19.9398 12.3773 19.5881 12.3773Z" fill="black"/>
<path d="M19.5881 16.1898H11.0906C10.7389 16.1898 10.4575 15.9084 10.4575 15.5567C10.4575 15.205 10.7389 14.9236 11.0906 14.9236H19.5881C19.9398 14.9236 20.2212 15.205 20.2212 15.5567C20.2212 15.9084 19.9398 16.1898 19.5881 16.1898Z" fill="black"/>
<path d="M8.29091 17.5263H6.03055C5.67883 17.5263 5.39746 17.2449 5.39746 16.8932V14.6328C5.39746 14.2858 5.67883 13.9998 6.03055 13.9998H8.29091C8.64263 13.9998 8.924 14.2811 8.924 14.6328V16.8932C8.924 17.2402 8.64263 17.5263 8.29091 17.5263ZM6.66833 16.2601H7.66251V15.2659H6.66833V16.2601Z" fill="black"/>
<path d="M8.29091 9.53997H6.03055C5.67883 9.53997 5.39746 9.2586 5.39746 8.90688V6.64652C5.39746 6.29949 5.67883 6.01343 6.03055 6.01343H8.29091C8.64263 6.01343 8.924 6.2948 8.924 6.64652V8.90688C8.924 9.25391 8.64263 9.53997 8.29091 9.53997ZM6.66833 8.27379H7.66251V7.27961H6.66833V8.27379Z" fill="black"/>
<path d="M8.29091 13.5307H6.03055C5.67883 13.5307 5.39746 13.2493 5.39746 12.8976V10.6372C5.39746 10.2902 5.67883 10.0042 6.03055 10.0042H8.29091C8.64263 10.0042 8.924 10.2855 8.924 10.6372V12.8976C8.924 13.2446 8.64263 13.5307 8.29091 13.5307ZM6.66833 12.2692H7.66251V11.275H6.66833V12.2692Z" fill="black"/>
</svg>
