<svg width="25" height="25" viewBox="0 0 25 25" fill="none" xmlns="http://www.w3.org/2000/svg">
<path d="M19.3442 7.42348V9.38371C19.3442 9.9277 18.9081 10.3638 18.3641 10.3638C17.8201 10.3638 17.384 9.9277 17.384 9.38371V8.40359H13.4635V18.2048H14.9313C15.4753 18.2048 15.9114 18.6409 15.9114 19.1849C15.9114 19.7289 15.4753 20.1369 14.9313 20.1369H10.0354C9.49144 20.1369 9.05531 19.7007 9.05531 19.1849C9.05531 18.669 9.49144 18.2048 10.0354 18.2048H11.5033V8.40359H7.58279V9.38371C7.58279 9.9277 7.14666 10.3638 6.60268 10.3638C6.05869 10.3638 5.62256 9.9277 5.62256 9.38371V7.42348C5.62256 6.87949 6.05869 6.44336 6.60268 6.44336H18.3641C18.9081 6.44336 19.3442 6.87949 19.3442 7.42348Z" fill="white"/>
<path d="M6.12404 8.5L17.9482 16.5" stroke="white" stroke-width="2" stroke-linecap="round"/>
</svg>
