<svg width="25" height="25" viewBox="0 0 25 25" fill="none" xmlns="http://www.w3.org/2000/svg">
<path d="M16.0148 5.81975L10.0263 12.1319L8.34743 10.5374C7.97695 10.1857 7.39076 10.2045 7.0578 10.5515C6.87491 10.7438 6.78112 10.9829 6.78581 11.2315L6.63574 18.1064C6.64043 18.3596 6.74829 18.5894 6.92181 18.7535C7.09532 18.9177 7.32511 19.0161 7.58303 19.0068L14.4438 18.5003C14.6924 18.4956 14.9269 18.3877 15.1098 18.1955C15.4427 17.8438 15.4287 17.2576 15.0582 16.9058L13.3793 15.3161L19.3679 9.00395C19.7196 8.63348 19.7055 8.04728 19.335 7.69557L17.3232 5.78692C16.9528 5.4352 16.3666 5.44927 16.0148 5.81975ZM18.6973 8.37086L12.0756 15.3489L14.3782 17.5765L7.56896 18.0782L7.71434 11.208L10.0638 13.4356L16.6901 6.45753C16.6855 6.45753 18.6973 8.37086 18.6973 8.37086Z" fill="white"/>
</svg>
