<?xml version="1.0" encoding="UTF-8" standalone="no"?>
<svg
   width="35"
   height="35"
   viewBox="0 0 35 35"
   fill="none"
   xmlns="http://www.w3.org/2000/svg">
  <path
     d="m 22.850029,18.446892 -4.748365,-2.331065 -2.374161,-4.662044 -0.922995,-1.8178913 -0.922996,1.8124073 -2.374161,4.662087 -4.7483472,2.331021 -1.8515206,0.911667 1.8459619,0.906225 4.7483649,2.331021 2.37416,4.662088 0.928538,1.812408 0.922995,-1.812408 2.374161,-4.662088 4.748365,-2.331021 1.845949,-0.906225 z m -5.487844,2.696784 -0.489293,0.245641 -0.250229,0.480403 v -0.0055 l -1.823697,3.581201 -1.82374,-3.57572 -0.250186,-0.480403 -0.489293,-0.24564 -3.6474791,-1.790603 3.6418951,-1.790559 0.489292,-0.245685 0.25023,-0.4804 1.823697,-3.581163 1.823739,3.575721 0.250187,0.480402 0.489293,0.24564 3.647436,1.790603 z"
     fill="#ffffff"/>
  <path
     d="m 28.74374,12.840367 -1.645808,-3.2372048 -1.645764,3.2372048 -3.297157,1.615902 3.297157,1.615903 1.645764,3.237248 1.645808,-3.237248 3.297157,-1.615903 z m 0.07784,1.81245 -0.834029,0.409417 c -0.06113,0.02729 -0.105631,0.07643 -0.138969,0.136486 l -0.417036,0.818875 c -0.111181,0.223794 -0.444788,0.223794 -0.556006,0 L 26.458547,15.19872 c -0.02784,-0.06005 -0.07784,-0.10372 -0.139013,-0.136486 l -0.83403,-0.409417 c -0.227978,-0.109199 -0.227978,-0.436748 0,-0.545904 l 0.83403,-0.409458 c 0.06117,-0.02729 0.105631,-0.07643 0.139013,-0.136486 l 0.416993,-0.818834 c 0.111215,-0.223836 0.444829,-0.223836 0.556006,0 l 0.417036,0.818834 c 0.0278,0.06005 0.07784,0.103753 0.138969,0.136486 l 0.834029,0.409458 c 0.227979,0.114639 0.227979,0.436707 0,0.545904 z"
     fill="#ffffff"/>
  <path
     d="m 21.270935,6.9663956 -0.995252,-1.954352 -0.995294,1.954352 -1.990503,0.9771676 1.990503,0.9772098 0.995294,1.954335 0.995252,-1.954335 1.984961,-0.9772098 z m 0.04446,1.097289 -0.50596,0.2456416 c -0.03893,0.016407 -0.0667,0.043696 -0.08338,0.081909 l -0.250231,0.4967662 c -0.0667,0.1364863 -0.266855,0.1364863 -0.333612,0 l -0.25018,-0.4967661 c -0.01667,-0.038213 -0.04451,-0.065502 -0.08342,-0.081909 L 19.302645,8.0636851 c -0.139013,-0.065502 -0.139013,-0.2620486 0,-0.3275503 l 0.50596,-0.2456415 c 0.03892,-0.016407 0.06676,-0.043696 0.08342,-0.081909 l 0.250191,-0.496766 c 0.06676,-0.1364862 0.266899,-0.1364862 0.333612,0 l 0.25023,0.4967663 c 0.01666,0.038213 0.04446,0.065502 0.08339,0.081909 l 0.50596,0.2456415 c 0.139012,0.065502 0.139012,0.2620486 0,0.3275503 z"
     fill="#ffffff"/>
</svg>
