<svg width="25" height="23" viewBox="0 0 25 23" fill="none" xmlns="http://www.w3.org/2000/svg">
<g clip-path="url(#clip0_1702_86)">
<path d="M2.77778 1.38889C2.00955 1.38889 1.38889 2.00955 1.38889 2.77778V15.2778C1.38889 16.046 2.00955 16.6667 2.77778 16.6667H10.0564C10.0651 16.6667 10.0738 16.6667 10.0825 16.6667H14.9175C14.9262 16.6667 14.9349 16.6667 14.9436 16.6667H22.2222C22.9904 16.6667 23.6111 16.046 23.6111 15.2778V2.77778C23.6111 2.00955 22.9904 1.38889 22.2222 1.38889H2.77778ZM9.24913 18.0556H2.77778C1.24566 18.0556 0 16.8099 0 15.2778V2.77778C0 1.24566 1.24566 0 2.77778 0H22.2222C23.7543 0 25 1.24566 25 2.77778V15.2778C25 16.8099 23.7543 18.0556 22.2222 18.0556H15.7509L16.2153 20.8333H18.75C19.1319 20.8333 19.4444 21.1458 19.4444 21.5278C19.4444 21.9097 19.1319 22.2222 18.75 22.2222H15.625H9.375H6.25C5.86806 22.2222 5.55556 21.9097 5.55556 21.5278C5.55556 21.1458 5.86806 20.8333 6.25 20.8333H8.78472L9.24913 18.0556ZM10.6554 18.0556L10.191 20.8333H14.8047L14.3403 18.0556H10.6597H10.6554Z" fill="grey"/>
</g>
<defs>
<clipPath id="clip0_1702_86">
<rect width="25" height="22.2222" fill="grey"/>
</clipPath>
</defs>
</svg>
