<?xml version="1.0" encoding="UTF-8" standalone="no"?>
<svg
   version="1.1"
   viewBox="0 0 30 30"
   width="30"
   height="30"
   id="svg17"
   sodipodi:docname="send1.svg"
   inkscape:version="1.1-alpha (17bc9184, 2021-03-28)"
   xmlns:inkscape="http://www.inkscape.org/namespaces/inkscape"
   xmlns:sodipodi="http://sodipodi.sourceforge.net/DTD/sodipodi-0.dtd"
   xmlns="http://www.w3.org/2000/svg"
   xmlns:svg="http://www.w3.org/2000/svg">
  <sodipodi:namedview
     id="namedview19"
     pagecolor="#ffffff"
     bordercolor="#666666"
     borderopacity="1.0"
     objecttolerance="10.0"
     gridtolerance="10.0"
     guidetolerance="10.0"
     inkscape:pageshadow="2"
     inkscape:pageopacity="0.0"
     inkscape:pagecheckerboard="0"
     showgrid="false"
     inkscape:zoom="25.1"
     inkscape:cx="15"
     inkscape:cy="15.478088"
     inkscape:window-width="1312"
     inkscape:window-height="1003"
     inkscape:window-x="0"
     inkscape:window-y="25"
     inkscape:window-maximized="0"
     inkscape:current-layer="svg17" />
  <!-- Generator: Adobe Illustrator 29.1.0, SVG Export Plug-In . SVG Version: 2.1.0 Build 142)  -->
  <defs
     id="defs23">
    <style
       id="style21">
      .st0 {
        fill: #fff;
      }

      .st1 {
        fill: #00a9e3;
      }
    </style>
  </defs>
  <g
     id="Layer_2">
    <path
       id="circle11"
       class="st1"
       d="M 15 0 A 15 15 0 0 0 0 15 A 15 15 0 0 0 15 30 A 15 15 0 0 0 30 15 A 15 15 0 0 0 15 0 z M 7.7734375 6.4472656 C 7.94238 6.4472656 8.102714 6.5172143 8.2617188 6.5820312 L 25.517578 14.005859 L 25.517578 14.011719 C 25.969748 14.20617 26.22889 14.654832 26.263672 15.148438 C 26.263672 15.642043 25.969748 16.090705 25.517578 16.285156 L 8.2617188 23.703125 C 8.102714 23.772928 8.1063537 23.802734 7.7734375 23.802734 C 7.4405213 23.802734 7.1135071 23.663358 6.875 23.414062 C 6.5222082 23.035133 6.4383368 22.477362 6.671875 22.013672 L 10.238281 15.142578 L 6.671875 8.2714844 C 6.4383368 7.8077941 6.5222082 7.2497686 6.875 6.8359375 C 7.1135071 6.5816557 7.4405213 6.4472656 7.7734375 6.4472656 z M 7.7734375 7.7226562 L 11.306641 14.523438 L 23.595703 14.523438 L 7.7734375 7.7226562 z M 11.302734 15.761719 L 7.7636719 22.582031 L 23.554688 15.761719 L 11.302734 15.761719 z " />
  </g>
  <g
     id="Layer_4"
     transform="matrix(0.04968898,0,0,0.04985917,1.6079044,1.7603898)" />
</svg>
