<svg width="25" height="30" viewBox="0 0 25 30" fill="none" xmlns="http://www.w3.org/2000/svg">
<g clip-path="url(#clip0_5_410)">
<path d="M12.4977 24.8546C19.3222 24.8546 24.8546 19.3222 24.8546 12.4977C24.8546 5.67309 19.3222 0.140686 12.4977 0.140686C5.67309 0.140686 0.140686 5.67309 0.140686 12.4977C0.140686 19.3222 5.67309 24.8546 12.4977 24.8546Z" fill="white"/>
<path d="M11.3816 8.33803C11.7708 8.33803 12.085 8.02383 12.085 7.63459C12.085 7.24536 11.7708 6.93116 11.3816 6.93116C10.9923 6.93116 10.6781 7.24536 10.6781 7.63459C10.6781 8.02383 10.9876 8.33803 11.3816 8.33803ZM19.7946 4.83493H10.4436C9.41194 4.83493 8.57251 5.67436 8.57251 6.70606V13.2527C8.57251 14.2844 9.41194 15.1238 10.4436 15.1238H19.7946C20.8263 15.1238 21.6657 14.2844 21.6657 13.2527V6.70606C21.6657 5.67436 20.8263 4.83493 19.7946 4.83493ZM20.7278 13.248C20.7278 13.7638 20.3105 14.1859 19.7899 14.1859H10.4436C9.92779 14.1859 9.50573 13.7685 9.50573 13.248V6.70606C9.50573 6.19021 9.9231 5.76815 10.4436 5.76815H19.7946C20.3105 5.76815 20.7325 6.18552 20.7325 6.70606L20.7278 13.248ZM16.8308 7.98631C16.5025 7.52204 15.7053 7.52204 15.3958 7.98631L14.1109 9.78241L13.9045 9.51979C13.5716 9.09773 12.8259 9.09304 12.493 9.51979L10.6265 11.8693C10.4155 12.1366 10.3874 12.4977 10.5468 12.7884C10.7016 13.0463 11.0017 13.248 11.33 13.248H18.9036C19.2272 13.248 19.5226 13.0792 19.6774 12.8072C19.8415 12.5164 19.8227 12.1694 19.6305 11.8974L16.8308 7.98631ZM11.4425 12.3101L13.1448 10.1013L13.731 10.8516C13.8576 11.0111 14.2422 11.1658 14.4813 10.8376L16.0711 8.53499L18.777 12.3101H11.4425ZM17.4545 16.057C17.1966 16.057 16.9903 16.2634 16.9903 16.5213V17.9235C16.9903 18.4393 16.5729 18.8614 16.0523 18.8614H15.1144V16.526C15.1144 16.2681 14.9081 16.0617 14.6502 16.0617C14.3922 16.0617 14.1859 16.2727 14.1859 16.526V18.8614H6.70607V10.4436H7.17033C7.42826 10.4436 7.6346 10.2326 7.6346 9.97937C7.6346 9.72144 7.42357 9.5151 7.17033 9.5151H4.83494C3.80324 9.5151 2.96381 10.3545 2.96381 11.3862V17.9328C2.96381 18.9646 3.80324 19.804 4.83494 19.804H16.057C17.0887 19.804 17.9282 18.9646 17.9282 17.9328V16.5307C17.9235 16.2681 17.7124 16.057 17.4545 16.057ZM5.76816 18.8567H4.83025C4.3144 18.8567 3.89234 18.4393 3.89234 17.9188V16.9809H5.76816V18.8567ZM5.76816 16.057H3.89703V13.2527H5.76816V16.057ZM5.76816 12.3148H3.89703V11.3769C3.89703 10.861 4.3144 10.4389 4.83494 10.4389H5.77285L5.76816 12.3148Z" fill="black"/>
<line x1="0.995399" y1="28.7273" x2="25.7044" y2="28.4999" stroke="#0D99FF"/>
</g>
<defs>
<clipPath id="clip0_5_410">
<rect width="25" height="30" fill="white"/>
</clipPath>
</defs>
</svg>
