<svg width="25" height="25" viewBox="0 0 25 25" fill="none" xmlns="http://www.w3.org/2000/svg">
<path d="M11.3016 7.21724C11.8081 7.21724 12.2207 6.80925 12.2207 6.29809C12.2207 5.78693 11.8081 5.37894 11.3016 5.37894C10.7951 5.37894 10.3824 5.79162 10.3824 6.29809C10.3824 6.80456 10.7904 7.21724 11.3016 7.21724ZM22.308 2.63086H10.0776C8.72703 2.63086 7.62968 3.72821 7.62968 5.07881V13.6419C7.62968 14.9925 8.72703 16.0899 10.0776 16.0899H22.308C23.6586 16.0899 24.7559 14.9925 24.7559 13.6419V5.07881C24.7559 3.72821 23.6586 2.63086 22.308 2.63086ZM23.5319 13.6372C23.5319 14.3125 22.9833 14.8612 22.308 14.8612H10.0776C9.40233 14.8612 8.85365 14.3125 8.85365 13.6372V5.07881C8.85365 4.40351 9.40233 3.85483 10.0776 3.85483H22.308C22.9833 3.85483 23.5319 4.40351 23.5319 5.07881V13.6372ZM18.4344 6.75767C18.003 6.15271 16.9619 6.14802 16.5586 6.75767L14.875 9.10713L14.6077 8.76479C14.1716 8.21143 13.1962 8.20674 12.76 8.76479L10.3168 11.8364C10.0401 12.1835 10.0026 12.6571 10.2136 13.0417C10.4153 13.3793 10.8092 13.6419 11.2406 13.6419H21.1497C21.5717 13.6419 21.9609 13.4215 22.1626 13.0651C22.3783 12.6853 22.3549 12.2304 22.1016 11.874L18.4344 6.75767ZM11.386 12.4133L13.6135 9.5245L14.3826 10.5046C14.5468 10.7156 15.0532 10.9126 15.3627 10.4859L17.4449 7.47517L20.9855 12.4133H11.386ZM19.2504 17.3092C18.9127 17.3092 18.6407 17.5812 18.6407 17.9188V19.7524C18.6407 20.4277 18.0921 20.9764 17.4168 20.9764H16.1928V17.9188C16.1928 17.5812 15.9208 17.3092 15.5832 17.3092C15.2455 17.3092 14.9735 17.5858 14.9735 17.9188V20.9764H5.18642V9.97001H5.79606C6.13371 9.97001 6.4057 9.69332 6.4057 9.36037C6.4057 9.02272 6.12902 8.75072 5.79606 8.75072H2.73847C1.38788 8.75072 0.290527 9.84808 0.290527 11.1987V19.7618C0.290527 21.1124 1.38788 22.2097 2.73847 22.2097H17.4168C18.7674 22.2097 19.8647 21.1124 19.8647 19.7618V17.9282C19.86 17.5858 19.588 17.3092 19.2504 17.3092ZM3.96245 20.9764H2.73847C2.06318 20.9764 1.5145 20.4277 1.5145 19.7524V18.5284H3.96245V20.9764ZM3.96245 17.3092H1.5145V13.6419H3.96245V17.3092ZM3.96245 12.418H1.5145V11.194C1.5145 10.5187 2.06318 9.97001 2.73847 9.97001H3.96245V12.418Z" fill="white"/>
</svg>
