<?xml version="1.0" encoding="UTF-8" standalone="no"?>
<svg
   width="30"
   height="30"
   viewBox="0 0 30 30"
   version="1.1"
   id="svg13"
   xmlns="http://www.w3.org/2000/svg">
  <path
     d="m 11.6494,2.3827439 h 6.583139 c 1.109649,0 2.090694,0.6873786 2.439124,1.7080309 l 0.55751,1.6247153 h 4.004543 c 1.892357,0 3.430913,1.4945396 3.430913,3.3327574 V 22.379233 c 0,1.838206 -1.538556,3.332735 -3.430913,3.332735 H 4.6481663 c -1.8923808,0 -3.4309328,-1.494529 -3.4309328,-3.332735 V 9.0482475 c 0,-1.8382178 1.5331906,-3.3327574 3.4309328,-3.3327574 H 8.6526971 L 9.2102191,4.0907748 C 9.5586718,3.0701225 10.539705,2.3827439 11.6494,2.3827439 Z m 3.291576,18.3301771 c 2.841166,0 5.146312,-2.239294 5.146312,-4.999159 0,-2.806835 -2.305146,-4.999147 -5.146312,-4.999147 -2.889522,0 -5.1464168,2.192312 -5.1464168,4.999147 0,2.759865 2.2568948,4.999159 5.1464168,4.999159 z"
     fill="#00a9e3" />
  <ellipse
     fill="#00a9e3"
     cx="14.874102"
     cy="15.686224"
     rx="2.857856"
     ry="2.7760763"/>
</svg>
