<svg width="25" height="25" viewBox="0 0 25 25" fill="none" xmlns="http://www.w3.org/2000/svg">
<g clip-path="url(#clip0_268_70)">
<path d="M24.2825 5.97442C23.7854 5.7165 23.1851 5.74932 22.7255 6.0729L17.9047 9.44938C17.567 9.68855 17.4826 10.1575 17.7218 10.4952C17.9188 10.8328 18.4252 10.9125 18.7676 10.678L23.5884 7.30157V18.1297L18.7676 14.758C18.4252 14.5235 17.961 14.6032 17.7218 14.9408C17.4826 15.2785 17.567 15.7474 17.9047 15.9866L22.7255 19.3631C22.9835 19.5413 23.2836 19.6351 23.5884 19.6351C23.8229 19.6351 24.0621 19.5788 24.2825 19.4663C24.7796 19.2037 25.0891 18.655 25.0891 18.0922V7.30157C25.0891 6.73882 24.7796 6.23235 24.2825 5.97442ZM13.6466 4.39404H3.04819C1.39278 4.39404 0.046875 5.73994 0.046875 7.39536V18.1344C0.046875 19.7945 1.38809 21.1357 3.04819 21.1357H13.6466C15.3067 21.1357 16.6479 19.7945 16.6479 18.1344V7.39536C16.6479 5.73994 15.302 4.39404 13.6466 4.39404ZM15.1472 18.1344C15.1472 18.9598 14.4719 19.6351 13.6466 19.6351H3.04819C2.22283 19.6351 1.54753 18.9598 1.54753 18.1344V7.39536C1.54753 6.57 2.22283 5.8947 3.04819 5.8947H13.6466C14.4719 5.8947 15.1472 6.57 15.1472 7.39536V18.1344Z" fill="white"/>
</g>
<defs>
<clipPath id="clip0_268_70">
<rect width="25" height="25" fill="white"/>
</clipPath>
</defs>
</svg>
