<svg width="32" height="32" viewBox="0 0 32 32" fill="none" xmlns="http://www.w3.org/2000/svg">
	<circle cx="16" cy="16" r="16" fill="#404444"/>
<path 
	transform="translate(3.5 3.5) scale(1)"
	d="M12.4976 4.63335C8.75531 4.63335 5.55704 7.16102 4.54879 10.6219C4.43624 10.9642 4.03762 11.2222 3.65308 11.1143C3.26854 11.0018 3.04813 10.5985 3.16068 10.2139C4.34713 6.15745 8.09409 3.18896 12.4976 3.18896C16.3196 3.18896 19.5929 5.33678 21.2155 8.43657V6.08242C21.2155 5.68381 21.539 5.36023 21.9376 5.36023C22.3363 5.36023 22.6598 5.68381 22.6598 6.08242V10.4203C22.6598 10.8189 22.3363 11.1424 21.9376 11.1424H21.2342C21.2248 11.1424 21.2108 11.1424 21.2014 11.1424H17.5998C17.2012 11.1424 16.8776 10.8189 16.8776 10.4203C16.8776 10.0216 17.2012 9.69806 17.5998 9.69806H20.1931C18.9316 6.72489 15.9772 4.63335 12.4976 4.63335ZM3.13723 19.8228C2.73862 19.8228 2.41504 19.4992 2.41504 19.1006V14.7628C2.41504 14.3642 2.73862 14.0406 3.13723 14.0406H3.84066C3.85004 13.9984 3.86411 13.9984 3.87349 14.0406H7.47507C7.87368 14.0406 8.19726 14.3642 8.19726 14.7628C8.19726 15.1614 7.87368 15.485 7.47507 15.485H4.88174C6.14792 18.4581 9.09765 20.5497 12.4976 20.5497C16.3196 20.5497 19.5178 18.022 20.5261 14.5611C20.6386 14.1766 21.0372 13.9609 21.4218 14.0687C21.8063 14.1813 22.0267 14.5424 21.9142 14.9691C20.7324 19.0256 16.9808 21.9941 12.4976 21.9941C8.76 21.9941 5.48201 19.8463 3.85942 16.7043V19.1006C3.85942 19.4992 3.53584 19.8228 3.13723 19.8228Z" fill="white"/>
</svg>
