<?xml version="1.0" encoding="UTF-8" standalone="no"?>
<svg
   width="30"
   height="25"
   viewBox="0 0 30 25"
   fill="none"
   xmlns="http://www.w3.org/2000/svg">
  <path
     d="m 4.1633632,3.1490899 c -0.8564258,0 -1.5468774,0.6920025 -1.5468774,1.5503519 V 20.196304 c 0,0.858365 0.6904516,1.550379 1.5468774,1.550379 H 25.819631 c 0.856441,0 1.546903,-0.692014 1.546903,-1.550379 V 4.6994418 c 0,-0.8583494 -0.690462,-1.5503519 -1.546903,-1.5503519 z M 1.0696063,4.6994418 c 0,-1.7100427 1.3875413,-3.1007016 3.0937569,-3.1007016 H 25.819631 c 1.70622,0 3.093755,1.3906589 3.093755,3.1007016 V 20.196304 c 0,1.710053 -1.387535,3.100704 -3.093755,3.100704 H 4.1633632 c -1.7062156,0 -3.0937569,-1.390651 -3.0937569,-3.100704 z m 9.6663497,4.6510504 c -1.7062209,0 -3.0937549,1.3906508 -3.0937549,3.1007038 0,1.710054 1.387534,3.100703 3.0937549,3.100703 0.843118,0 1.606603,-0.339328 2.164291,-0.884968 0.305362,-0.299424 0.790029,-0.292747 1.095391,0.0067 0.298753,0.306048 0.292143,0.791804 -0.0067,1.097905 -0.836507,0.825032 -1.97843,1.324088 -3.246462,1.324088 -2.5626099,0 -4.640627,-2.082663 -4.640627,-4.651029 0,-2.5684188 2.0780171,-4.6510818 4.640627,-4.6510818 1.268032,0 2.409955,0.5056818 3.246462,1.324141 0.305362,0.299424 0.312024,0.791803 0.0067,1.0978518 -0.298752,0.306101 -0.790029,0.312778 -1.095391,0.0067 C 12.342559,9.6898682 11.579074,9.3505392 10.735956,9.3505392 Z m 9.281265,0 c -1.706222,0 -3.093755,1.3906508 -3.093755,3.1007038 0,1.710054 1.387533,3.100703 3.093755,3.100703 0.843116,0 1.606601,-0.339328 2.16429,-0.884968 0.305363,-0.299424 0.790029,-0.292747 1.095392,0.0067 0.298752,0.306048 0.292141,0.791804 -0.0067,1.097905 -0.836508,0.825032 -1.978429,1.324088 -3.246462,1.324088 -2.56261,0 -4.640606,-2.082663 -4.640606,-4.651029 0,-2.5684188 2.077996,-4.6510818 4.640606,-4.6510818 1.268033,0 2.409954,0.5056818 3.246462,1.324141 0.305363,0.299424 0.312025,0.791803 0.0067,1.0978518 -0.298752,0.306101 -0.790029,0.312778 -1.095392,0.0067 -0.557689,-0.5323378 -1.321174,-0.8716668 -2.16429,-0.8716668 z"
     fill="white"/>
</svg>
