<svg width="41" height="41" viewBox="0 0 41 41" fill="none" xmlns="http://www.w3.org/2000/svg">
    <path d="M33.625 8.07353H21.4621L18.3183 4.92965C17.4854 4.08928 16.3599 3.61658 15.1819 3.61658H6.9583C4.50473 3.61658 2.51636 5.61245 2.51636 8.05852V30.2832C2.51636 32.7443 4.51223 34.7252 6.9583 34.7252H33.625C36.086 34.7252 38.0669 32.7368 38.0669 30.2832V12.508C38.0669 10.0619 36.1386 8.07353 33.625 8.07353ZM35.906 30.2907C35.906 31.5138 34.908 32.5117 33.685 32.5117H7.01833C5.79529 32.5117 4.79736 31.5138 4.79736 30.2907V8.07353C4.79736 6.85049 5.79529 5.85256 7.01833 5.85256H15.1819C15.7747 5.85256 16.3374 6.08516 16.7501 6.50534L20.5392 10.2945H33.685C34.908 10.2945 35.906 11.2924 35.906 12.5155V30.2907Z" fill="#00A9E0"/>
    <path d="M27.885 20.2813L23.1805 17.9253L20.8244 13.2208L19.909 11.3824L18.9936 13.2208L16.6376 17.9253L11.933 20.2813L10.0947 21.2042L11.9255 22.1196L16.6301 24.4757L18.9861 29.1802L19.909 31.011L20.8244 29.1802L23.1805 24.4757L27.885 22.1196L29.7158 21.2042L27.885 20.2813ZM22.4451 23.005L21.9574 23.2526L21.7098 23.7404V23.7329L19.9015 27.3494L18.0932 23.7404L17.8456 23.2526L17.3579 23.005L13.7413 21.1967L17.3504 19.3885L17.8381 19.1408L18.0857 18.6531L19.894 15.0365L21.7023 18.6456L21.9499 19.1333L22.4376 19.3809L26.0542 21.1892L22.4451 23.005Z" fill="#00A9E0"/>
    </svg>
    