<svg width="25" height="25" viewBox="0 0 25 25" fill="none" xmlns="http://www.w3.org/2000/svg">
<path d="M20.7514 8.01446H19.2507C18.838 8.01446 18.5004 8.35211 18.5004 8.76479C18.5004 9.17747 18.838 9.51512 19.2507 9.51512H20.7514C21.1641 9.51512 21.5017 9.85277 21.5017 10.2654V22.2707C21.5017 22.6834 21.1641 23.021 20.7514 23.021H4.24415C3.83147 23.021 3.49382 22.6834 3.49382 22.2707V10.2654C3.49382 9.85277 3.83147 9.51512 4.24415 9.51512H5.74481C6.15749 9.51512 6.49513 9.17747 6.49513 8.76479C6.49513 8.35211 6.15749 8.01446 5.74481 8.01446H4.24415C3.00142 8.01446 1.99316 9.02272 1.99316 10.2654V22.2707C1.99316 23.5134 3.00142 24.5217 4.24415 24.5217H20.7514C21.9941 24.5217 23.0024 23.5134 23.0024 22.2707V10.2654C23.0024 9.02272 21.9941 8.01446 20.7514 8.01446ZM7.99579 6.51381C8.18806 6.51381 8.38033 6.43877 8.52571 6.2934L11.7474 3.07167V16.2681C11.7474 16.6808 12.0851 17.0184 12.4978 17.0184C12.9104 17.0184 13.2481 16.6808 13.2481 16.2681V3.07636L16.4698 6.29809C16.6152 6.44346 16.8075 6.5185 16.9997 6.5185C17.4265 6.5185 17.7501 6.16678 17.7501 5.76817C17.7501 5.5759 17.675 5.38362 17.5296 5.23825L13.0277 0.736278C12.8823 0.590902 12.69 0.515869 12.4978 0.515869C12.3055 0.515869 12.1132 0.590902 11.9678 0.736278L7.46587 5.23825C7.3205 5.38362 7.24546 5.5759 7.24546 5.76817C7.24546 6.16209 7.56904 6.51381 7.99579 6.51381Z" fill="black"/>
</svg>
