<svg width="25" height="25" viewBox="0 0 25 25" fill="none" xmlns="http://www.w3.org/2000/svg">
<g clip-path="url(#clip0_268_31)">
<path d="M12.5166 2.00708L15.1428 3.3436L15.9025 2.2228L12.859 0.656489C12.6667 0.558008 12.4228 0.558008 12.2024 0.651799L8.91504 2.32128L9.67475 3.43739L12.5166 2.00708Z" fill="white"/>
<path d="M2.13381 14.6033H0.736328V18.1861C0.736328 18.4253 0.872325 18.6504 1.09273 18.777L3.55475 20.0197L4.31446 18.8989L2.1385 17.7875L2.13381 14.6033Z" fill="white"/>
<path d="M22.918 17.764L20.5264 18.9692L21.2861 20.09L23.9263 18.7582L23.9357 18.7535C24.1655 18.6222 24.2921 18.4112 24.2921 18.1626V14.6033H22.8946L22.918 17.764Z" fill="white"/>
<path d="M13.1542 22.7489V20.7793H11.827V22.702L9.72144 21.6281L8.93359 22.7442L12.1835 24.3809C12.3007 24.4512 12.432 24.4512 12.5117 24.4512C12.6196 24.4512 12.7462 24.4137 12.8072 24.3949L16.0195 22.7677L15.2551 21.675L13.1542 22.7489Z" fill="white"/>
<path d="M3.67199 4.99902L1.10211 6.30741L1.09273 6.3121C0.862946 6.44341 0.736328 6.65444 0.736328 6.90298V9.70264H2.13381V8.13164L3.94867 8.68501L4.34259 7.37663L2.85132 6.93581L4.42701 6.12452L3.67199 4.99902Z" fill="white"/>
<path d="M24.3387 6.87954C24.3058 6.60755 24.1605 6.40121 23.9494 6.30742L21.3373 4.97559L20.5776 6.09639L22.1533 6.89361L20.6808 7.40477L21.1404 8.68502L22.9412 8.04724V9.70265H24.3387V6.90299V6.87954Z" fill="white"/>
<path transform="rotate(45, 12.5, 12.5) translate(6,5) " d="M12.022 9.69249L11.8438 8.9703C11.5437 7.77446 10.8168 6.7709 9.85073 6.11436L9.49902 1.56549H10.1931C10.2775 1.56549 10.3572 1.54205 10.4229 1.50453C10.5635 1.42481 10.6573 1.27474 10.6573 1.10123C10.6573 0.847993 10.4463 0.636963 10.1931 0.636963H2.7742C2.52097 0.636963 2.30994 0.847993 2.30994 1.10123C2.30994 1.27005 2.40373 1.42481 2.54441 1.50453C2.61007 1.54205 2.68979 1.56549 2.7742 1.56549H3.46825L3.11654 6.11436C2.1458 6.7709 1.42361 7.76977 1.12348 8.9703L0.945276 9.69249C0.874933 9.96917 0.940586 10.2646 1.1141 10.4897C1.2923 10.7148 1.55961 10.8461 1.84567 10.8461H6.02406L5.99592 15.0245C5.99592 15.2777 6.2304 15.4888 6.46019 15.4888C6.74156 15.4888 6.95259 15.2777 6.95259 15.0245V10.8461H11.131C11.417 10.8461 11.689 10.7148 11.8626 10.4897C12.0314 10.2646 12.0923 9.97386 12.022 9.69249ZM6.9479 9.92228L6.01937 9.91759V9.92228H1.84098L2.01918 9.1954C2.25835 8.22466 2.84923 7.41806 3.63239 6.88814L4.00286 6.63959L4.3921 1.57018H8.56111L8.95034 6.63959L9.32082 6.88814C10.104 7.41806 10.6949 8.22935 10.934 9.1954L11.1122 9.92228H6.9479Z" fill="white"/>
</g>
<defs>
<clipPath id="clip0_268_31">
<rect width="25" height="25" fill="white"/>
</clipPath>
</defs>
</svg>
