<svg width="25" height="25" viewBox="0 0 25 25" fill="none"
    xmlns="http://www.w3.org/2000/svg">
    <path d="M0.548635 23.3275C0.548635 24.0323 1.12076 24.6101 1.82888 24.6101H10.8563C11.5597 24.6101 12.1365 24.0369 12.1365 23.3275C12.1365 22.6227 11.5644 22.0448 10.8563 22.0448H3.10444L3.09975 14.2831C3.09975 13.5784 2.52763 13.0005 1.8195 13.0005C1.11138 13.0005 0.543945 13.5784 0.543945 14.2831V23.3275H0.548635Z" fill="white"/>
    <path d="M11.9351 15.0301L3.18905 23.7926C2.68258 24.3 1.86191 24.3 1.35544 23.7926C0.848968 23.2852 0.848968 22.4629 1.35544 21.9555L10.1015 13.1931C10.6079 12.6856 11.4286 12.6856 11.9351 13.1931C12.4415 13.7005 12.4415 14.5227 11.9351 15.0301Z" fill="white"/>
    <path d="M24.4604 1.8183C24.4604 1.11354 23.8883 0.535645 23.1802 0.535645H14.1528C13.4494 0.535645 12.8726 1.10885 12.8726 1.8183C12.8726 2.52775 13.4494 3.10095 14.1528 3.10095H21.9046L21.9093 10.8674C21.9093 11.5721 22.4815 12.15 23.1896 12.15C23.893 12.15 24.4698 11.5768 24.4698 10.8674V1.8183H24.4604Z" fill="white"/>
    <path d="M13.0742 10.1157L21.8202 1.35322C22.3267 0.8458 23.1473 0.8458 23.6538 1.35322C24.1603 1.86065 24.1603 2.68286 23.6538 3.19028L14.9078 11.9574C14.4013 12.4649 13.5807 12.4649 13.0742 11.9574C12.5677 11.45 12.5677 10.6231 13.0742 10.1157Z" fill="white"/>
</svg>
