<svg width="32" height="32" viewBox="0 0 32 32" fill="none" xmlns="http://www.w3.org/2000/svg">
    <circle cx="16" cy="16" r="16" fill="#F2F2F7" />
    <g clip-path="url(#clip0_171_21)">
        <path
            d="M11 6.99999V7.99999C11 9.95718 11.5781 11.8656 12.6641 13.4969L13 14V24.4719C13 25.3 13.6719 25.9719 14.5 25.9719H17.5C18.3281 25.9719 19 25.3 19 24.4719V14L19.3359 13.4962C20.4219 11.8406 21 9.92811 21 7.99999V6.99999C21 6.44936 20.5506 5.99999 20 5.99999H12C11.45 5.99999 11 6.42186 11 6.99999ZM19.425 8.97186C19.2766 10.2806 18.8156 11.5384 18.0853 12.6344L17.5 13.5187V24.4719H14.5V13.5187L13.9141 12.6359C13.1844 11.5375 12.725 10.2812 12.575 8.97186H19.425ZM15.25 17.0969V17.8469C15.25 18.2609 15.5859 18.5969 16 18.5969C16.4141 18.5969 16.75 18.2609 16.75 17.8469V17.0969C16.75 16.6828 16.4141 16.3469 16 16.3469C15.5875 16.3469 15.25 16.6844 15.25 17.0969Z"
            fill="#404444" />
    </g>
    <defs>
        <clipPath id="clip0_171_21">
            <rect width="20" height="16" fill="white" transform="translate(8 26) rotate(-90)" />
        </clipPath>
    </defs>
</svg>