<svg width="25" height="25" viewBox="0 0 25 25" fill="none" xmlns="http://www.w3.org/2000/svg">
<path d="M15.0768 4.69905C15.9866 4.69905 16.7088 5.44 16.7088 6.33101V9.36515L21.6281 6.53267V16.845L16.7088 14.0125V17.0466C16.7088 17.9564 15.9679 18.6786 15.0768 18.6786H5.20533C4.29556 18.6786 3.57337 17.9377 3.57337 17.0466V6.33101C3.57337 5.42124 4.31432 4.69905 5.20533 4.69905H15.0768ZM15.0768 3.52197H5.20533C3.65309 3.52197 2.3916 4.78346 2.3916 6.3357V17.0513C2.3916 18.6036 3.65309 19.8651 5.20533 19.8651H15.0768C16.6291 19.8651 17.8906 18.6036 17.8906 17.0513V16.0571L21.042 17.8767C21.2295 17.9799 21.4312 18.0268 21.6328 18.0268C21.8345 18.0268 22.0361 17.9752 22.2237 17.8767C22.5942 17.6563 22.8146 17.2717 22.8146 16.8497V6.53735C22.8146 6.11529 22.5942 5.73075 22.2237 5.51034C22.0361 5.40717 21.8345 5.36028 21.6328 5.36028C21.4312 5.36028 21.2295 5.41186 21.042 5.51034L17.8906 7.32989V6.3357C17.8906 4.78346 16.6291 3.52197 15.0768 3.52197Z" fill="black"/>
</svg>
