<svg width="55" height="55" viewBox="0 0 55 55" fill="none" xmlns="http://www.w3.org/2000/svg">
<path d="M51.8743 7.88358C50.9457 7.39868 49.8418 7.4709 48.9958 8.06929L40.5771 13.9706C40.2573 14.1976 40.0406 14.5381 39.9787 14.9198C39.9065 15.3015 39.9994 15.6936 40.216 16.0134C40.3914 16.3126 40.6906 16.5189 41.062 16.6015C41.485 16.6943 41.9183 16.6118 42.2691 16.3745L50.4505 10.6485V28.9716L42.2691 23.2456C41.5985 22.7814 40.7009 22.9361 40.2263 23.6067C39.9994 23.9265 39.9168 24.3186 39.9787 24.7003C40.051 25.082 40.2573 25.4225 40.5771 25.6495L48.9958 31.5508C49.4704 31.881 50.0275 32.0563 50.5949 32.0563C51.0386 32.0563 51.4822 31.9532 51.8846 31.7468C52.7925 31.2723 53.3805 30.2715 53.3805 29.2089V10.339C53.3702 9.29701 52.7925 8.35817 51.8743 7.88358Z" fill="white"/>
<path  d="M14.7122 34.6553H33.2209C36.1922 34.6553 38.6167 32.2309 38.6167 29.2596V10.5032C38.6167 7.53192 36.1922 5.10742 33.2209 5.10742H14.7122C11.7409 5.10742 9.31641 7.53192 9.31641 10.5032V29.2596C9.31641 32.2412 11.7306 34.6553 14.7122 34.6553ZM35.6867 29.2596C35.6867 30.6214 34.5828 31.7253 33.2209 31.7253H14.7122C13.3504 31.7253 12.2464 30.6214 12.2464 29.2596V10.5032C12.2464 9.14137 13.3504 8.03745 14.7122 8.03745H33.2209C34.5828 8.03745 35.6867 9.14137 35.6867 10.5032V29.2596Z" fill="white"/>
<path  d="M43.4141 31.4466C43.3935 31.4363 43.3729 31.4156 43.3522 31.4156L43.2284 31.3434C42.8983 31.1783 42.5062 31.1474 42.1245 31.2609C41.7634 31.3847 41.4745 31.6426 41.2991 31.9831C40.9484 32.6743 41.196 33.4893 41.8769 33.8711C41.8872 33.8711 41.8872 33.8814 41.8975 33.8814L41.9594 33.933H41.9697C43.311 34.748 44.8998 36.0377 44.8998 37.5439C44.8998 39.2153 42.8261 41.0414 39.3699 42.4239C37.4199 43.208 35.1192 43.8167 32.5916 44.2397C32.0448 44.4047 31.5702 45.065 31.663 45.8182C31.7765 46.7467 32.5916 47.1388 33.2312 47.0665C35.893 46.6126 38.3382 45.9523 40.4428 45.1063C45.1783 43.208 47.7885 40.5359 47.7885 37.5543C47.7679 35.2845 46.2616 33.1798 43.4141 31.4466Z" fill="white"/>
<path  d="M29.4656 46.3341L29.4553 46.3238L29.7338 46.3445L23.6777 40.0408C23.0897 39.4733 22.1818 39.4733 21.604 40.0511C21.3254 40.3296 21.181 40.701 21.181 41.0931C21.181 41.4851 21.3358 41.8566 21.6143 42.1248L24.4309 44.9001H24.3483C18.6533 44.9001 13.3194 44.0231 9.33708 42.4343C5.87056 41.0518 3.80716 39.2257 3.80716 37.5544C3.80716 36.0171 5.41661 34.7378 6.76814 33.9331C7.09829 33.7371 7.32526 33.4172 7.41811 33.0458C7.51097 32.6744 7.45938 32.2824 7.25304 31.9625C7.05702 31.6324 6.73719 31.3951 6.36578 31.3022C5.98405 31.2094 5.60232 31.261 5.28249 31.4673C2.435 33.1696 0.928711 35.2743 0.928711 37.5544C0.928711 40.536 3.53892 43.2081 8.27442 45.1064C12.5766 46.8294 18.2922 47.7785 24.3483 47.7785H24.4102L21.7278 50.5538C21.4596 50.8427 21.3254 51.2141 21.3358 51.6061C21.3461 51.9982 21.5112 52.3593 21.8 52.6172C22.0373 52.8648 22.3675 53.0092 22.7492 53.0092C23.1825 53.0092 23.5849 52.8442 23.8738 52.5347L29.7235 46.3341H29.4656Z" fill="white"/>
</svg>
