<?xml version="1.0" encoding="UTF-8" standalone="no"?>
<svg
   width="30"
   height="25"
   viewBox="0 0 30 25"
   fill="none"
   xmlns="http://www.w3.org/2000/svg">
  <path
     d="m 1.0693899,4.6989126 c 0,-1.7130401 1.3849419,-3.1007352 3.0945846,-3.1007352 H 25.819439 c 1.709674,0 3.094609,1.3876951 3.094609,3.1007352 V 20.195967 c 0,1.713019 -1.384935,3.100706 -3.094609,3.100706 H 4.1639745 c -1.7096427,0 -3.0945846,-1.387687 -3.0945846,-3.100706 z m 9.6680861,5.4246014 c 0.689169,0 1.305451,0.292174 1.729519,0.776894 0.42412,0.478056 1.159679,0.517877 1.636788,0.09291 0.477109,-0.42491 0.51685,-1.1619319 0.09273,-1.6399886 -0.848188,-0.9494507 -2.080701,-1.5470217 -3.459038,-1.5470217 -2.5644589,0 -4.638562,2.0848355 -4.638562,4.6477793 0,2.562892 2.0807527,4.64778 4.638562,4.64778 1.371688,0 2.61085,-0.597571 3.459038,-1.547074 0.424119,-0.478057 0.384378,-1.208415 -0.09273,-1.639989 -0.477109,-0.431573 -1.206071,-0.385089 -1.636788,0.09297 -0.424068,0.478056 -1.047,0.776842 -1.729519,0.776842 -1.2789046,0 -2.319255,-1.04247 -2.319255,-2.323916 0,-1.281446 1.0403504,-2.337189 2.319255,-2.337189 z m 6.964467,2.323915 c 0,-1.281446 1.040402,-2.323915 2.319307,-2.323915 0.689168,0 1.305399,0.292174 1.729519,0.776894 0.424119,0.484667 1.159627,0.517877 1.636736,0.09291 0.477108,-0.42491 0.516902,-1.1619319 0.09278,-1.6399886 -0.848187,-0.9494507 -2.0807,-1.5470217 -3.459037,-1.5470217 -2.564459,0 -4.638562,2.0848355 -4.638562,4.6477793 0,2.562892 2.080701,4.64778 4.638562,4.64778 1.371687,0 2.61085,-0.597571 3.459037,-1.547074 0.42412,-0.478057 0.384326,-1.208415 -0.09278,-1.639989 -0.477109,-0.431573 -1.206019,-0.385089 -1.636736,0.09297 -0.42412,0.478056 -1.047,0.776842 -1.729519,0.776842 -1.285554,-0.01327 -2.319307,-1.055744 -2.319307,-2.33719 z"
     fill="white"/>
</svg>
