<svg width="25" height="22" viewBox="0 0 25 22" fill="none" xmlns="http://www.w3.org/2000/svg">
<path d="M20.526 2.66138H15.0862C14.1905 2.66138 13.4683 3.38357 13.4683 4.27927V8.54676C13.4683 9.44247 14.1905 10.1647 15.0862 10.1647H20.526C21.4217 10.1647 22.1439 9.44247 22.1439 8.54676V4.27927C22.1392 3.38826 21.4171 2.66138 20.526 2.66138ZM20.9012 8.05905C20.9012 8.46235 20.5776 8.78593 20.1743 8.78593H15.4379C15.0346 8.78593 14.711 8.46235 14.711 8.05905V4.76699C14.711 4.36368 15.0346 4.04011 15.4379 4.04011H20.1743C20.5776 4.04011 20.9012 4.36368 20.9012 4.76699V8.05905Z" fill="white"/>
<path d="M21.5673 0.232178H3.55942C1.90401 0.232178 0.558105 1.57808 0.558105 3.23349V18.2401C0.558105 19.8955 1.90401 21.2414 3.55942 21.2414H21.5673C23.2227 21.2414 24.5686 19.8955 24.5686 18.2401V3.23349C24.5686 1.57808 23.2227 0.232178 21.5673 0.232178ZM23.068 18.2401C23.068 19.0701 22.3973 19.7407 21.5673 19.7407H3.55942C2.72937 19.7407 2.05876 19.0701 2.05876 18.2401V3.23349C2.05876 2.40344 2.72937 1.73283 3.55942 1.73283H21.5673C22.3973 1.73283 23.068 2.40344 23.068 3.23349V18.2401Z" fill="white"/>
<path d="M9.32769 12.378C11.2457 12.378 12.798 10.8258 12.798 8.90777C12.798 6.98974 11.2457 5.4375 9.32769 5.4375C7.40966 5.4375 5.85742 6.98974 5.85742 8.90777C5.85742 10.8258 7.40966 12.378 9.32769 12.378ZM9.35114 6.75057C10.5282 6.75057 11.4849 7.70724 11.4849 8.88432C11.4849 10.0614 10.5282 11.0181 9.35114 11.0181C8.17406 11.0181 7.21739 10.0614 7.21739 8.88432C7.21739 7.70724 8.17406 6.75057 9.35114 6.75057Z" fill="white"/>
<path d="M11.4565 12.9409H9.42124H7.38598C5.60864 12.9409 4.16895 15.8813 4.16895 17.6586C4.16895 18.3667 4.74576 18.9435 5.45388 18.9435H13.3886C14.0967 18.9435 14.6735 18.3667 14.6735 17.6586C14.6735 15.8813 13.2338 12.9409 11.4565 12.9409ZM5.68367 17.4429C5.79153 16.5988 6.51372 14.4416 7.38598 14.4416H11.4565C12.3335 14.4416 13.0556 16.5988 13.1588 17.4429H5.68367Z" fill="white"/>
</svg>
