<svg width="504" height="509" viewBox="0 0 504 509" fill="none" xmlns="http://www.w3.org/2000/svg">
<path d="M251.6 30.4001L307.6 58.9001L323.8 35.0001L258.9 1.60006C254.8 -0.499942 249.6 -0.499942 244.9 1.50006L174.8 37.1001L191 60.9001L251.6 30.4001Z" fill="white"/>
<path d="M30.1999 299H0.399902V375.4C0.399902 380.5 3.2999 385.3 7.9999 388L60.4999 414.5L76.6999 390.6L30.2999 366.9V299H30.1999Z" fill="white"/>
<path d="M473.4 366.4L422.4 392.1L438.6 416L494.9 387.6L495.1 387.5C500 384.7 502.7 380.2 502.7 374.9V299H472.9L473.4 366.4Z" fill="white"/>
<path d="M265.2 472.7V430.7H236.9V471.7L192 448.8L175.2 472.6L244.5 507.5C247 509 249.8 509 251.5 509C253.8 509 256.5 508.2 257.8 507.8L326.3 473.1L310 449.8L265.2 472.7Z" fill="white"/>
<path d="M62.9999 94.2001L8.1999 122.1L7.9999 122.2C3.0999 125 0.399902 129.5 0.399902 134.8V194.5H30.1999V161L68.8999 172.8L77.2999 144.9L45.4999 135.5L79.0999 118.2L62.9999 94.2001Z" fill="white"/>
<path d="M503.7 134.3C503 128.5 499.9 124.1 495.4 122.1L439.7 93.7001L423.5 117.6L457.1 134.6L425.7 145.5L435.5 172.8L473.9 159.2V194.5H503.7V134.8V134.3Z" fill="white"/>
</svg>
