<svg width="25" height="26" viewBox="0 0 25 26" fill="none" xmlns="http://www.w3.org/2000/svg">
<g clip-path="url(#clip0_1855_55)">
<path d="M12.6476 11.1377C12.6476 11.8411 13.2197 12.418 13.9278 12.418H22.9552C23.6586 12.418 24.2354 11.8458 24.2354 11.1377C24.2354 10.4343 23.6633 9.85747 22.9552 9.85747H15.2034L15.1987 2.11033C15.1987 1.40689 14.6266 0.830078 13.9184 0.830078C13.215 0.830078 12.6382 1.4022 12.6382 2.11033V11.1377H12.6476Z" fill="white"/>
<path d="M24.0342 2.8558L15.2882 11.6018C14.7817 12.1083 13.961 12.1083 13.4546 11.6018C12.9481 11.0953 12.9481 10.2747 13.4546 9.7682L22.2006 1.02219C22.707 0.515716 23.5277 0.515716 24.0342 1.02219C24.5407 1.52866 24.5407 2.34933 24.0342 2.8558Z" fill="white"/>
<path d="M12.4556 13.7732C12.4556 13.0697 11.8834 12.4929 11.1753 12.4929H2.14792C1.44449 12.4929 0.867676 13.065 0.867676 13.7732C0.867676 14.4766 1.4398 15.0534 2.14792 15.0534H9.89975L9.90444 22.8052C9.90444 23.5087 10.4766 24.0855 11.1847 24.0855C11.8928 24.0855 12.4649 23.5134 12.4649 22.8052V13.7732H12.4556Z" fill="white"/>
<path d="M1.06931 22.0548L9.81532 13.3088C10.3218 12.8023 11.1425 12.8023 11.6489 13.3088C12.1554 13.8153 12.1554 14.636 11.6489 15.1424L2.90292 23.8931C2.39645 24.3996 1.57578 24.3996 1.06931 23.8931C0.562835 23.3867 0.562835 22.5613 1.06931 22.0548Z" fill="white"/>
</g>
<defs>
<clipPath id="clip0_1855_55">
<rect width="25" height="25" fill="white" transform="translate(0 0.046875)"/>
</clipPath>
</defs>
</svg>
