<svg width="25" height="25" viewBox="0 0 25 25" fill="none" xmlns="http://www.w3.org/2000/svg">
<path transform="rotate(45, 12.5, 12.5)" d="M18.022 14.6925L17.8438 13.9703C17.5437 12.7745 16.8168 11.7709 15.8507 11.1144L15.499 6.56549H16.1931C16.2775 6.56549 16.3572 6.54205 16.4229 6.50453C16.5635 6.42481 16.6573 6.27474 16.6573 6.10123C16.6573 5.84799 16.4463 5.63696 16.1931 5.63696H8.7742C8.52097 5.63696 8.30994 5.84799 8.30994 6.10123C8.30994 6.27005 8.40373 6.42481 8.54441 6.50453C8.61007 6.54205 8.68979 6.56549 8.7742 6.56549H9.46825L9.11654 11.1144C8.1458 11.7709 7.42361 12.7698 7.12348 13.9703L6.94528 14.6925C6.87493 14.9692 6.94059 15.2646 7.1141 15.4897C7.2923 15.7148 7.55961 15.8461 7.84567 15.8461H12.0241L11.9959 20.0245C11.9959 20.2777 12.2304 20.4888 12.4602 20.4888C12.7416 20.4888 12.9526 20.2777 12.9526 20.0245V15.8461H17.131C17.417 15.8461 17.689 15.7148 17.8626 15.4897C18.0314 15.2646 18.0923 14.9739 18.022 14.6925ZM12.9479 14.9223L12.0194 14.9176V14.9223H7.84098L8.01918 14.1954C8.25835 13.2247 8.84923 12.4181 9.63239 11.8881L10.0029 11.6396L10.3921 6.57018H14.5611L14.9503 11.6396L15.3208 11.8881C16.104 12.4181 16.6949 13.2293 16.934 14.1954L17.1122 14.9223H12.9479Z" fill="white"/>
</svg>
