<svg width="21" height="24" viewBox="0 0 21 24" fill="none" xmlns="http://www.w3.org/2000/svg">
<path d="M6.33725 0.831381L5.99738 1.50066H1.50065C0.669281 1.50066 0 2.16994 0 3.00132C0 3.83269 0.669281 4.50197 1.50065 4.50197H19.498C20.3294 4.50197 20.9987 3.83269 20.9987 3.00132C20.9987 2.16994 20.3294 1.50066 19.498 1.50066H14.9961L14.6562 0.831381C14.4105 0.318963 13.8876 8.30725e-06 13.3229 8.30725e-06H7.67582C7.11111 8.30725e-06 6.58823 0.318963 6.33725 0.831381ZM19.498 6.00262H1.50065L2.49412 21.8928C2.56732 23.0797 3.55556 24 4.73725 24H16.2614C17.4484 24 18.4314 23.0745 18.5046 21.8928L19.498 6.00262Z" fill="white"/>
</svg>
