<svg width="25" height="25" viewBox="0 0 25 25" fill="none" xmlns="http://www.w3.org/2000/svg">
<path d="M20.0385 4.66614C20.9576 4.66614 21.6939 5.40709 21.6939 6.29811V17.0137C21.6939 17.9235 20.9436 18.6457 20.0385 18.6457H11.1143L7.66275 22.7725L9.39788 18.6457H5.25232C4.33317 18.6457 3.59691 17.9047 3.59691 17.0137V6.29811C3.59691 5.38833 4.34724 4.66614 5.25232 4.66614H20.0385ZM20.0385 3.48438H5.25232C3.68132 3.48438 2.40576 4.74586 2.40576 6.29811V17.0137C2.40576 18.566 3.68601 19.8275 5.25232 19.8275H7.55958L6.43878 22.538C6.19961 23.0773 6.38719 23.701 6.89835 24.0199C7.08593 24.1372 7.30634 24.2075 7.53144 24.2075C7.87378 24.2075 8.21143 24.0574 8.45059 23.7854L11.6958 19.8275H20.0713C21.6423 19.8275 22.9179 18.566 22.9179 17.0137V6.29811C22.9179 4.74586 21.6376 3.48438 20.0713 3.48438H20.0385Z" fill="black"/>
<path d="M17.5764 10.4482H7.62048C7.29221 10.4482 7.0249 10.1809 7.0249 9.85265C7.0249 9.52439 7.29221 9.25708 7.62048 9.25708H17.5764C17.9047 9.25708 18.172 9.52439 18.172 9.85265C18.172 10.1809 17.9047 10.4482 17.5764 10.4482Z" fill="black"/>
<path d="M15.6631 14.4062H7.62048C7.29221 14.4062 7.0249 14.1389 7.0249 13.8107C7.0249 13.4824 7.29221 13.2151 7.62048 13.2151H15.6631C15.9913 13.2151 16.2586 13.4824 16.2586 13.8107C16.2586 14.1389 15.9913 14.4062 15.6631 14.4062Z" fill="black"/>
</svg>
