<?xml version="1.0" encoding="UTF-8" standalone="no"?>
<svg
   width="60"
   height="60"
   viewBox="0 0 60 60"
   fill="none"
   version="1.1"
   id="svg35"
   sodipodi:docname="caption_on.svg"
   inkscape:version="1.1-alpha (17bc9184, 2021-03-28)"
   xmlns:inkscape="http://www.inkscape.org/namespaces/inkscape"
   xmlns:sodipodi="http://sodipodi.sourceforge.net/DTD/sodipodi-0.dtd"
   xmlns="http://www.w3.org/2000/svg"
   xmlns:svg="http://www.w3.org/2000/svg">
  <defs
     id="defs39" />
  <sodipodi:namedview
     id="namedview37"
     pagecolor="#ffffff"
     bordercolor="#666666"
     borderopacity="1.0"
     objecttolerance="10.0"
     gridtolerance="10.0"
     guidetolerance="10.0"
     inkscape:pageshadow="2"
     inkscape:pageopacity="0.0"
     inkscape:pagecheckerboard="0"
     showgrid="false"
     width="80px"
     inkscape:zoom="6.6637168"
     inkscape:cx="56.049801"
     inkscape:cy="56.424967"
     inkscape:window-width="1792"
     inkscape:window-height="996"
     inkscape:window-x="28"
     inkscape:window-y="126"
     inkscape:window-maximized="0"
     inkscape:current-layer="svg35" />
  <path
     d="m 30.471516,53.710133 c 13.360574,0 24.191542,-10.810291 24.191542,-24.145642 0,-13.335303 -10.830968,-24.1457318 -24.191542,-24.1457318 -13.360621,0 -24.1915231,10.8104288 -24.1915231,24.1457318 0,13.335351 10.8309021,24.145642 24.1915231,24.145642 z"
     fill="#00a9e3"
     id="path9"
     style="stroke-width:0.477734" />
  <path
     d="m 41.89424,27.15794 -3.606625,-1.804889 3.606625,-1.794914 1.80831,-3.609825 1.798316,3.609825 3.616666,1.794914 -3.616666,1.804889 -1.798316,3.599803 z"
     fill="#ffffff"
     id="path11"
     style="stroke-width:0.477734" />
  <path
     d="m 43.70255,21.291955 1.175382,2.346413 0.180849,0.360969 0.361653,0.180508 2.35086,1.173206 -2.360902,1.173159 -0.361652,0.180508 -0.18085,0.360969 -1.175431,2.346412 -1.175381,-2.346412 -0.18085,-0.360969 -0.361652,-0.180508 -2.340818,-1.173159 2.35086,-1.173206 0.361652,-0.180508 0.18085,-0.360969 z m 0,-2.687287 -2.260435,4.502247 -4.510779,2.246136 4.510779,2.246089 2.250344,4.502295 2.250394,-4.502295 4.510779,-2.246089 -4.510779,-2.246136 z"
     fill="#ffffff"
     id="path13"
     style="stroke-width:0.477734" />
  <path
     d="m 33.455256,17.21091 -1.818351,-0.912516 1.818351,-0.912468 0.914244,-1.814959 0.904155,1.814959 1.828442,0.912468 -1.828442,0.912516 -0.904155,1.814911 z"
     fill="#ffffff"
     id="path15"
     style="stroke-width:0.477734" />
  <path
     d="m 34.3695,14.91461 0.281318,0.561523 0.180848,0.361016 0.361654,0.18046 0.562586,0.280785 -0.562586,0.280786 -0.361654,0.18046 -0.180848,0.361015 -0.281318,0.561522 -0.281269,-0.561522 -0.18085,-0.361015 -0.361653,-0.18046 -0.562586,-0.280786 0.562586,-0.280785 0.361653,-0.18046 0.18085,-0.361016 z m 0,-2.687287 -1.366274,2.717404 -2.722554,1.353667 2.722554,1.353666 1.356232,2.717405 1.35628,-2.717405 2.722553,-1.353666 -2.722553,-1.353667 z"
     fill="#ffffff"
     id="path17"
     style="stroke-width:0.477734" />
  <path
     d="m 26.342473,42.790497 -3.365475,-6.728291 -6.741089,-3.359156 -1.085005,-0.541477 1.085005,-0.541476 6.741089,-3.359157 3.365475,-6.728338 0.542503,-1.082953 0.53246,1.082953 3.375566,6.728338 6.741087,3.359157 1.085005,0.541476 -1.085005,0.541477 -6.741087,3.359156 -3.365524,6.728291 -0.542502,1.082953 z"
     fill="#ffffff"
     id="path19"
     style="stroke-width:0.477734" />
  <path
     d="m 26.884976,22.244563 3.074212,6.126676 0.241101,0.481339 0.482203,0.240645 6.138286,3.06835 -6.138286,3.06835 -0.482203,0.240645 -0.241101,0.481339 -3.074212,6.126676 -3.074165,-6.126676 -0.241102,-0.481339 -0.482203,-0.240645 -6.138334,-3.06835 6.138334,-3.06835 0.482203,-0.240645 0.241102,-0.481339 z m 0,-3.589781 -1.255765,2.51685 -3.244973,6.487693 -6.499939,3.238835 -2.52162,1.25339 2.52162,1.253389 6.499939,3.238836 3.244973,6.487692 1.255765,2.516851 1.255812,-2.516851 3.244972,-6.487692 6.49994,-3.238836 2.52162,-1.253389 -2.52162,-1.25339 -6.489898,-3.238835 -3.244971,-6.487693 z"
     fill="#ffffff"
     id="path21"
     style="stroke-width:0.477734" />
  <path
     d="m 30.471516,3.9146674 c -14.185397,0 -25.6984604,11.4812816 -25.6984604,25.6498716 0,14.168542 11.5030224,25.649987 25.6984604,25.649987 14.19544,0 25.698308,-11.481445 25.698308,-25.649987 0,-14.16859 -11.502868,-25.6498716 -25.698308,-25.6498716 z m 0,48.3917796 c -12.588015,0 -22.7850529,-10.177701 -22.7850529,-22.741908 0,-12.564254 10.2070789,-22.7419507 22.7850529,-22.7419507 12.577975,0 22.785196,10.1776967 22.785196,22.7419507 0,12.564207 -10.19718,22.741908 -22.785196,22.741908 z"
     fill="#00a9e3"
     id="path23"
     style="stroke-width:0.477734" />
  <path
     d="m 18.59681,32.201664 4.822223,-0.621659 0.442036,-1.744752 z"
     fill="#ffffff"
     id="path25"
     style="stroke-width:0.477734" />
  <path
     d="m 23.861069,29.835253 -5.264259,2.366411 4.822223,-0.621659 z"
     fill="#00a9e3"
     id="path27"
     style="stroke-width:0.477734" />
  <path
     d="m 26.915101,23.838922 -0.411862,4.241556 -1.697849,0.601614 z"
     fill="#ffffff"
     id="path29"
     style="stroke-width:0.477734" />
  <path
     d="m 26.915101,23.838922 -2.109711,4.84317 1.697849,-0.601614 z"
     fill="#00a9e3"
     id="path31"
     style="stroke-width:0.477734" />
  <path
     d="m 30.471516,8.6575892 c 2.833063,0 5.575701,0.5514989 8.157572,1.6444748 2.491494,1.052836 4.731845,2.556941 6.660706,4.482202 1.928907,1.925259 3.435864,4.161324 4.490696,6.648105 1.094855,2.576989 1.647638,5.314439 1.647638,8.142143 0,2.827704 -0.552783,5.565202 -1.647638,8.14219 -1.054832,2.486782 -2.561789,4.722847 -4.490696,6.648106 -1.928861,1.925261 -4.169212,3.429367 -6.660706,4.482203 -2.581871,1.092976 -5.324509,1.644331 -8.157572,1.644331 -2.833062,0 -5.5757,-0.551355 -8.157619,-1.644331 -2.491494,-1.052836 -4.731798,-2.556942 -6.660706,-4.482203 -1.928908,-1.925259 -3.435816,-4.161324 -4.490696,-6.648106 -1.095047,-2.576988 -1.6475908,-5.314486 -1.6475908,-8.14219 0,-2.827704 0.5525438,-5.565154 1.6475908,-8.142143 1.05488,-2.486781 2.561788,-4.722846 4.490696,-6.648105 1.928908,-1.925261 4.169212,-3.429366 6.660706,-4.482202 2.591961,-1.0929759 5.334598,-1.6444748 8.157619,-1.6444748 z m 0,-0.8022155 c -12.015388,0 -21.7502576,9.7164553 -21.7502576,21.7091173 0,11.992662 9.7348696,21.709118 21.7502576,21.709118 12.015388,0 21.750401,-9.716456 21.750401,-21.709118 0,-11.992662 -9.735013,-21.7091173 -21.750401,-21.7091173 z"
     fill="#ffffff"
     id="path33"
     style="stroke-width:0.477734" />
</svg>
