<svg width="24" height="21" viewBox="0 0 24 21" fill="none" xmlns="http://www.w3.org/2000/svg">
    <g>
    <path d="M15.3055 11.67L11.3007 9.6676L9.2982 5.66272L8.5198 4.1011L7.7413 5.65804L5.7389 9.6629L1.734 11.6654L0.172401 12.4485L1.7293 13.227L5.7342 15.2294L7.7366 19.2343L8.5198 20.7912L9.2982 19.2343L11.3007 15.2294L15.3055 13.227L16.8625 12.4485L15.3055 11.67ZM10.677 13.9867L10.2643 14.1977L10.0532 14.6104V14.6057L8.5151 17.682L6.9769 14.6104L6.7659 14.1977L6.3532 13.9867L3.2768 12.4485L6.3485 10.9103L6.7612 10.6993L6.9722 10.2866L8.5104 7.2103L10.0486 10.2819L10.2596 10.6946L10.6723 10.9056L13.7486 12.4438L10.677 13.9867Z" fill="white"/>
    <path d="M20.2766 6.8539L18.8885 4.07297L17.5004 6.8539L14.7195 8.242L17.5004 9.6301L18.8885 12.411L20.2766 9.6301L23.0575 8.242L20.2766 6.8539ZM20.3423 8.4108L19.6388 8.7625C19.5872 8.786 19.5497 8.8282 19.5216 8.8798L19.1699 9.5832C19.0761 9.7755 18.7947 9.7755 18.7009 9.5832L18.3492 8.8798C18.3257 8.8282 18.2835 8.7907 18.232 8.7625L17.5285 8.4108C17.3363 8.317 17.3363 8.0356 17.5285 7.9418L18.232 7.5901C18.2835 7.5667 18.3211 7.5245 18.3492 7.4729L18.7009 6.7695C18.7947 6.5772 19.0761 6.5772 19.1699 6.7695L19.5216 7.4729C19.545 7.5245 19.5872 7.562 19.6388 7.5901L20.3423 7.9418C20.5345 8.0403 20.5345 8.317 20.3423 8.4108Z" fill="white"/>
    <path d="M13.9737 1.80792L13.1343 0.12906L12.2948 1.80792L10.616 2.64735L12.2948 3.48678L13.1343 5.16564L13.9737 3.48678L15.6479 2.64735L13.9737 1.80792ZM14.0112 2.75052L13.5845 2.96155C13.5516 2.97562 13.5282 2.99906 13.5141 3.03189L13.3031 3.45864C13.2468 3.57588 13.078 3.57588 13.0217 3.45864L12.8107 3.03189C12.7966 2.99906 12.7732 2.97562 12.7403 2.96155L12.3136 2.75052C12.1963 2.69424 12.1963 2.52542 12.3136 2.46914L12.7403 2.25812C12.7732 2.24405 12.7966 2.2206 12.8107 2.18777L13.0217 1.76102C13.078 1.64378 13.2468 1.64378 13.3031 1.76102L13.5141 2.18777C13.5282 2.2206 13.5516 2.24405 13.5845 2.25812L14.0112 2.46914C14.1284 2.52542 14.1284 2.69424 14.0112 2.75052Z" fill="white"/>
    </g>
</svg>
