<svg width="25" height="25" viewBox="0 0 25 25" fill="none" xmlns="http://www.w3.org/2000/svg">
	<circle cx="12" cy="12" r="12" fill="#404444"/>
<path 
	transform="translate(6 6) scale(0.5)"
	d="M16.9058 1.96973H15.4052H4.90057H3.39991C2.15718 1.96973 1.14893 2.97798 1.14893 4.22071V14.5377C1.14893 15.7805 2.15718 16.7887 3.39991 16.7887H4.90057H15.4052H16.9058C18.1486 16.7887 19.1568 15.7805 19.1568 14.5377V4.22071C19.1568 2.97798 18.1486 1.96973 16.9058 1.96973ZM15.4052 15.2881H4.90057H3.39991C2.98723 15.2881 2.64958 14.9504 2.64958 14.5377V4.22071C2.64958 3.80803 2.98723 3.47038 3.39991 3.47038H4.90057H15.4052H16.9058C17.3185 3.47038 17.6561 3.80803 17.6561 4.22071V14.5377C17.6561 14.9504 17.3185 15.2881 16.9058 15.2881H15.4052Z" fill="white"/>
<path 
	transform="translate(6 6) scale(0.5)"
	d="M19.1337 7.4563H16.7749V8.95696H19.1337V7.4563Z" fill="white"/>
<path 
	transform="translate(6 6) scale(0.5)"
	d="M15.2695 7.4563H12.9106V8.95696H15.2695V7.4563Z" fill="white"/>
<path 
	transform="translate(6 6) scale(0.5)"
	d="M11.4101 7.4563H9.05127V8.95696H11.4101V7.4563Z" fill="white"/>
<path
	transform="translate(6 6) scale(0.5)" 
	d="M20.6343 8.95696H20.7984C21.2111 8.95696 21.5487 9.2946 21.5487 9.70728V10.3638H23.0494V9.70728C23.0494 8.46455 22.0411 7.4563 20.7984 7.4563H20.6343V8.95696Z" fill="white"/>
<path transform="translate(6 6) scale(0.5)" d="M6.54216 15.7239H5.0415V18.0827H6.54216V15.7239Z" fill="white"/>
<path transform="translate(6 6) scale(0.5)" d="M11.4101 20.7747H9.05127V22.2753H11.4101V20.7747Z" fill="white"/>
<path transform="translate(6 6) scale(0.5)" d="M6.54216 11.8645H5.0415V14.2233H6.54216V11.8645Z" fill="white"/>
<path transform="translate(6 6) scale(0.5)" d="M7.55041 20.7746H7.29249C6.87981 20.7746 6.54216 20.4369 6.54216 20.0243V19.5881H5.0415V20.0243C5.0415 21.267 6.04976 22.2752 7.29249 22.2752H7.55041V20.7746Z" fill="white"/>
<path transform="translate(6 6) scale(0.5)" d="M21.5487 19.5881V20.0243C21.5487 20.4369 21.2111 20.7746 20.7984 20.7746H20.6343V22.2752H20.7984C22.0411 22.2752 23.0494 21.267 23.0494 20.0243V19.5881H21.5487Z" fill="white"/>
<path transform="translate(6 6) scale(0.5)" d="M6.54216 10.3638V9.70728C6.54216 9.2946 6.87981 8.95696 7.29249 8.95696H7.55041V7.4563H7.29249C6.04976 7.4563 5.0415 8.46455 5.0415 9.70728V10.3638H6.54216Z" fill="white"/>
<path transform="translate(6 6) scale(0.5)" d="M15.2695 20.7747H12.9106V22.2753H15.2695V20.7747Z" fill="white"/>
<path transform="translate(6 6) scale(0.5)" d="M19.1337 20.7747H16.7749V22.2753H19.1337V20.7747Z" fill="white"/>
<path transform="translate(6 6) scale(0.5)" d="M23.0495 15.7239H21.5488V18.0827H23.0495V15.7239Z" fill="white"/>
<path transform="translate(6 6) scale(0.5)" d="M23.0495 11.8645H21.5488V14.2233H23.0495V11.8645Z" fill="white"/>
</svg>
