<svg width="25" height="25" viewBox="0 0 25 25" fill="none" xmlns="http://www.w3.org/2000/svg">
<path d="M23.4664 13.0275C23.4664 18.8191 18.7581 23.5275 12.9665 23.5275C9.71196 23.5275 6.6872 22.0596 4.68007 19.4897C4.42684 19.1662 4.48311 18.6925 4.81138 18.4393C5.13965 18.1814 5.6086 18.2423 5.86653 18.5706C7.58759 20.77 10.1762 22.0315 12.9665 22.0315C17.9327 22.0315 21.9704 17.9938 21.9704 13.0275C21.9704 8.06131 17.9327 4.02361 12.9665 4.02361C9.73541 4.02361 6.79975 5.74467 5.19123 8.52558H9.21487C9.62755 8.52558 9.9652 8.86322 9.9652 9.2759C9.9652 9.68858 9.62755 10.0262 9.21487 10.0262H3.21224C2.79956 10.0262 2.46191 9.68858 2.46191 9.2759V3.27328C2.46191 2.8606 2.79956 2.52295 3.21224 2.52295C3.62492 2.52295 3.96257 2.8606 3.96257 3.27328V7.6627C5.85246 4.48787 9.23832 2.52764 12.9665 2.52764C18.7581 2.52764 23.4664 7.23595 23.4664 13.0275Z" fill="white"/>
</svg>
