<svg width="22" height="19" viewBox="0 0 22 19" fill="none" xmlns="http://www.w3.org/2000/svg">
<path fill-rule="evenodd" clip-rule="evenodd" d="M15.2167 2.69782H20.1667C21.1776 2.69782 22 3.5625 22 4.62484V16.1869C22 17.2496 21.1776 18.114 20.1667 18.114H1.83333C0.822381 18.114 0 17.2496 0 16.1869V4.62484C0 3.56223 0.822381 2.69782 1.83333 2.69782H3.85L4.84 1.31065C5.2999 0.665922 5.77526 0 6.96667 0H12.1C13.2987 0 13.7922 0.696754 14.2275 1.31175L15.2167 2.69782ZM17.8799 8.82219C17.3131 8.7757 16.8667 8.27749 16.8667 7.66953C16.8667 7.4113 16.9472 7.17288 17.0833 6.98045C16.6258 7.07219 16.2799 7.49485 16.2799 8.00258C16.2799 8.57738 16.7233 9.04317 17.2699 9.04317C17.5 9.04317 17.7118 8.96064 17.8799 8.82219ZM14.7949 3.52804H19.2499C20.1598 3.52804 20.8999 4.30625 20.8999 5.26236V15.6682C20.8999 16.6246 20.1598 17.4026 19.2499 17.4026H2.74991C1.84005 17.4026 1.09991 16.6246 1.09991 15.6682V5.26236C1.09991 4.30601 1.84005 3.52804 2.74991 3.52804H4.56491L5.45591 2.27958C5.86982 1.69933 6.29764 1.1 7.36991 1.1H11.9899C13.0688 1.1 13.5129 1.72708 13.9046 2.28057L14.7949 3.52804Z" fill="#AEAEAE"/>
<path d="M9.53321 5.49194C7.15747 5.49194 5.22461 7.52329 5.22461 10.0207C5.22461 12.5176 7.15721 14.5489 9.53321 14.5489C11.9092 14.5489 13.8418 12.5173 13.8418 10.0204C13.8418 7.52329 11.909 5.49194 9.53321 5.49194ZM9.53321 12.911C8.01678 12.911 6.78321 11.6143 6.78321 10.0204C6.78321 8.42651 8.01678 7.12991 9.53321 7.12991C11.0496 7.12991 12.2832 8.42651 12.2832 10.0204C12.2832 11.6143 11.0496 12.911 9.53321 12.911Z" fill="#AEAEAE"/>
</svg>
