<svg width="37" height="37" viewBox="0 0 37 37" fill="none" xmlns="http://www.w3.org/2000/svg">
<path d="M18.9267 3.91998C9.76295 3.91998 2.39547 9.95712 2.39547 17.4056C2.39547 20.4917 3.68529 23.3145 5.82597 25.5902C4.8603 28.1496 2.84792 30.3173 2.82091 30.3375C2.39547 30.79 2.27392 31.4518 2.52378 32.0258C2.71962 32.6471 3.27336 33.0185 3.89463 33.0185C7.87887 33.0185 10.965 31.3437 12.9098 30.0269C14.7331 30.6077 16.813 30.9453 18.9335 30.9453C28.0972 30.9453 35.4714 24.9082 35.4714 17.5204C35.4714 10.1327 28.0972 3.91998 18.9267 3.91998ZM18.9267 28.8722C17.0967 28.8722 15.2869 28.602 13.5311 28.0415C12.9166 27.839 12.2413 27.947 11.7078 28.3184C10.2762 29.3719 7.91264 30.6077 5.04939 30.8913C5.77195 29.9121 6.98073 28.2644 7.68979 26.3803L7.69654 26.3601C7.97341 25.6307 7.81134 24.8609 7.28461 24.2329C5.41405 22.2002 4.40785 19.8975 4.40785 17.4597C4.40785 11.1727 10.9245 6.05392 18.8727 6.05392C26.8749 6.05392 33.3375 11.1727 33.3375 17.4597C33.3375 23.7467 26.9357 28.8722 18.9267 28.8722Z" fill="#00A9E0"/>
<path d="M19.8585 9.30207L18.9334 7.44501L18.0082 9.29532L15.6312 14.0494L10.8771 16.4264L9.02002 17.3651L10.8703 18.2903L15.6244 20.6673L18.0014 25.4214L18.9334 27.2717L19.8585 25.4214L22.2356 20.6673L26.9896 18.2903L28.8399 17.3651L26.9896 16.4399L22.2356 14.0629L19.8585 9.30207ZM21.4927 19.1816L20.9998 19.4315L20.7499 19.9245V19.9177L18.9266 23.5711L17.1033 19.9245L16.8534 19.4315L16.3605 19.1816L12.7071 17.3583L16.3537 15.535L16.8467 15.2852L17.0966 14.7922L18.9199 11.1389L20.7431 14.7855L20.993 15.2784L21.486 15.5283L25.1393 17.3516L21.4927 19.1816Z" fill="#00A9E0"/>
</svg>
